<?xml version="1.0" encoding="UTF-8"?>
<!DOCTYPE svg PUBLIC "-//W3C//DTD SVG 1.1//EN" "http://www.w3.org/Graphics/SVG/1.1/DTD/svg11.dtd">
<svg xmlns="http://www.w3.org/2000/svg" version="1.1" width="800px" height="800px" style="shape-rendering:geometricPrecision; text-rendering:geometricPrecision; image-rendering:optimizeQuality; fill-rule:evenodd; clip-rule:evenodd" xmlns:xlink="http://www.w3.org/1999/xlink">
<g><path style="opacity:1" fill="#00508c" d="M -0.5,-0.5 C 266.167,-0.5 532.833,-0.5 799.5,-0.5C 799.5,266.167 799.5,532.833 799.5,799.5C 532.833,799.5 266.167,799.5 -0.5,799.5C -0.5,532.833 -0.5,266.167 -0.5,-0.5 Z"/></g>
<g><path style="opacity:1" fill="#24557e" d="M 405.5,78.5 C 403.692,77.0821 403.025,75.0821 403.5,72.5C 405.833,72.5 408.167,72.5 410.5,72.5C 410.5,69.8333 410.5,67.1667 410.5,64.5C 408.167,64.5 405.833,64.5 403.5,64.5C 403.5,62.1667 403.5,59.8333 403.5,57.5C 400.833,57.5 398.167,57.5 395.5,57.5C 395.712,55.6159 396.712,54.2826 398.5,53.5C 400.226,55.0298 402.226,56.0298 404.5,56.5C 405.944,58.6079 406.61,60.9412 406.5,63.5C 408.527,63.3379 410.527,63.5045 412.5,64C 412.322,66.9546 412.322,70.1212 412.5,73.5C 410.167,73.5 407.833,73.5 405.5,73.5C 405.5,75.1667 405.5,76.8333 405.5,78.5 Z"/></g>
<g><path style="opacity:1" fill="#7293b1" d="M 391.5,108.5 C 392.043,108.56 392.376,108.893 392.5,109.5C 390.257,110.474 387.924,110.808 385.5,110.5C 387.5,109.833 389.5,109.167 391.5,108.5 Z"/></g>
<g><path style="opacity:1" fill="#f8fcfb" d="M 395.5,57.5 C 398.167,57.5 400.833,57.5 403.5,57.5C 403.5,59.8333 403.5,62.1667 403.5,64.5C 405.833,64.5 408.167,64.5 410.5,64.5C 410.5,67.1667 410.5,69.8333 410.5,72.5C 408.167,72.5 405.833,72.5 403.5,72.5C 403.025,75.0821 403.692,77.0821 405.5,78.5C 414.729,82.968 418.063,90.3013 415.5,100.5C 413.549,104.451 410.549,107.451 406.5,109.5C 414.462,110.64 422.462,111.307 430.5,111.5C 447.214,114.515 463.214,119.848 478.5,127.5C 495.091,138.126 509.091,151.459 520.5,167.5C 525.728,177.007 529.895,187.007 533,197.5C 534.029,203.123 534.529,208.79 534.5,214.5C 525.277,209.972 516.111,205.305 507,200.5C 506.018,178.201 496.851,160.201 479.5,146.5C 479.5,146.167 479.5,145.833 479.5,145.5C 469.036,135.847 457.036,129.014 443.5,125C 457.018,136.535 466.685,150.701 472.5,167.5C 475.272,174.252 477.272,181.252 478.5,188.5C 478.36,190.03 477.693,191.03 476.5,191.5C 466.792,188.421 456.792,186.088 446.5,184.5C 446.586,166.487 441.586,150.154 431.5,135.5C 426.118,128.303 419.118,123.303 410.5,120.5C 410.167,121 409.833,121.5 409.5,122C 411.717,134.61 413.717,147.11 415.5,159.5C 415.5,166.833 415.5,174.167 415.5,181.5C 405.167,181.5 394.833,181.5 384.5,181.5C 384.5,177.5 384.5,173.5 384.5,169.5C 384.604,153.003 386.271,136.67 389.5,120.5C 382.481,122.675 376.315,126.342 371,131.5C 363.786,139.595 358.952,148.928 356.5,159.5C 353.386,167.425 352.053,175.758 352.5,184.5C 342.057,185.989 331.724,187.989 321.5,190.5C 321.368,187.43 321.701,184.43 322.5,181.5C 327.25,164.334 334.917,148.667 345.5,134.5C 348.991,131.51 352.324,128.343 355.5,125C 345.913,127.628 337.246,132.128 329.5,138.5C 326.556,140.311 323.556,142.144 320.5,144C 319.748,144.671 319.414,145.504 319.5,146.5C 309.992,154.364 302.658,164.031 297.5,175.5C 297.5,175.833 297.5,176.167 297.5,176.5C 294.076,183.995 292.243,191.995 292,200.5C 287.398,202.213 283.232,204.547 279.5,207.5C 279.167,207.5 278.833,207.5 278.5,207.5C 273.969,209.341 269.635,211.674 265.5,214.5C 264.701,203.818 266.368,193.485 270.5,183.5C 281.851,159.81 298.851,141.143 321.5,127.5C 335.016,119.775 349.349,114.442 364.5,111.5C 371.485,110.911 378.485,110.578 385.5,110.5C 387.924,110.808 390.257,110.474 392.5,109.5C 392.376,108.893 392.043,108.56 391.5,108.5C 384.016,103.49 381.516,96.4902 384,87.5C 386.565,82.7565 390.398,79.7565 395.5,78.5C 395.5,76.5 395.5,74.5 395.5,72.5C 393.167,72.5 390.833,72.5 388.5,72.5C 388.5,69.8333 388.5,67.1667 388.5,64.5C 390.833,64.5 393.167,64.5 395.5,64.5C 395.5,62.1667 395.5,59.8333 395.5,57.5 Z"/></g>
<g><path style="opacity:1" fill="#255b8a" d="M 415.5,100.5 C 415.263,103.212 415.263,105.712 415.5,108C 419.194,108.732 422.861,109.565 426.5,110.5C 427.894,110.379 429.228,110.046 430.5,109.5C 431.463,109.97 431.463,110.637 430.5,111.5C 422.462,111.307 414.462,110.64 406.5,109.5C 410.549,107.451 413.549,104.451 415.5,100.5 Z"/></g>
<g><path style="opacity:1" fill="#1e547f" d="M 364.5,111.5 C 349.349,114.442 335.016,119.775 321.5,127.5C 321.389,126.883 321.056,126.383 320.5,126C 325.771,123.878 330.438,121.045 334.5,117.5C 335.086,117.709 335.586,118.043 336,118.5C 341.084,117.071 346.251,115.071 351.5,112.5C 355.783,111.508 360.116,111.174 364.5,111.5 Z"/></g>
<g><path style="opacity:1" fill="#1c517d" d="M 431.5,135.5 C 429.188,134.68 426.854,133.847 424.5,133C 423.139,131.416 422.472,129.582 422.5,127.5C 419.972,126.977 417.639,125.977 415.5,124.5C 414.558,124.608 413.725,124.941 413,125.5C 414.901,136.695 415.734,148.028 415.5,159.5C 413.717,147.11 411.717,134.61 409.5,122C 409.833,121.5 410.167,121 410.5,120.5C 419.118,123.303 426.118,128.303 431.5,135.5 Z"/></g>
<g><path style="opacity:1" fill="#04508c" d="M 384.5,169.5 C 383.515,173.634 383.182,177.968 383.5,182.5C 394.346,182.828 405.013,182.494 415.5,181.5C 415.5,174.167 415.5,166.833 415.5,159.5C 415.734,148.028 414.901,136.695 413,125.5C 413.725,124.941 414.558,124.608 415.5,124.5C 417.639,125.977 419.972,126.977 422.5,127.5C 422.472,129.582 423.139,131.416 424.5,133C 426.854,133.847 429.188,134.68 431.5,135.5C 441.586,150.154 446.586,166.487 446.5,184.5C 448.649,186.746 451.316,188.246 454.5,189C 458.833,189.333 463.167,189.667 467.5,190C 467.833,190.333 468.167,190.667 468.5,191C 467.128,191.402 465.795,191.902 464.5,192.5C 461.916,191.607 459.249,191.274 456.5,191.5C 456.627,194.245 455.46,196.245 453,197.5C 452.501,201.486 452.334,205.486 452.5,209.5C 451.209,209.263 450.209,209.596 449.5,210.5C 437.74,213.362 434.574,220.362 440,231.5C 447.751,237.348 454.418,236.348 460,228.5C 462.267,238.717 468.434,242.384 478.5,239.5C 481.617,240.073 483.617,238.906 484.5,236C 485.546,230.528 485.712,225.028 485,219.5C 482.581,217.415 479.747,216.415 476.5,216.5C 478.077,211.945 478.91,207.278 479,202.5C 478.027,200.608 477.36,198.608 477,196.5C 474.447,195.075 471.947,193.575 469.5,192C 471.81,191.503 474.143,191.337 476.5,191.5C 477.693,191.03 478.36,190.03 478.5,188.5C 477.272,181.252 475.272,174.252 472.5,167.5C 472.938,167.565 473.272,167.399 473.5,167C 472.189,163.646 471.356,160.146 471,156.5C 468.686,153.046 466.852,149.38 465.5,145.5C 465.608,144.558 465.941,143.725 466.5,143C 463.225,142.539 460.891,140.873 459.5,138C 460.059,135.812 461.393,135.146 463.5,136C 466.557,138.723 469.89,141.056 473.5,143C 470.808,146.447 471.808,148.28 476.5,148.5C 476.5,147.5 476.5,146.5 476.5,145.5C 477.5,145.5 478.5,145.5 479.5,145.5C 479.5,145.833 479.5,146.167 479.5,146.5C 479.45,148.59 480.45,149.923 482.5,150.5C 483.452,152.045 483.785,153.712 483.5,155.5C 485.288,155.215 486.955,155.548 488.5,156.5C 489.31,159.926 490.31,163.259 491.5,166.5C 492.833,166.5 494.167,166.5 495.5,166.5C 495.396,169.09 496.063,171.423 497.5,173.5C 495.563,181.415 495.063,189.748 496,198.5C 498.745,194.836 499.245,190.836 497.5,186.5C 497.478,184.035 497.978,181.702 499,179.5C 500.52,182.382 501.853,185.382 503,188.5C 503.336,192.001 503.169,195.501 502.5,199C 502.494,201.3 502.994,203.466 504,205.5C 506.699,205.701 509.532,205.368 512.5,204.5C 515.681,206.592 518.681,208.925 521.5,211.5C 523.115,212.154 524.782,212.654 526.5,213C 523.833,213.667 523.833,214.333 526.5,215C 524.012,216.462 521.345,217.462 518.5,218C 517.663,219.011 517.33,220.178 517.5,221.5C 515.925,223.547 514.925,225.881 514.5,228.5C 513.287,229.575 511.787,230.241 510,230.5C 505.054,229.259 500.221,227.925 495.5,226.5C 495.5,227.833 495.5,229.167 495.5,230.5C 496.833,230.5 498.167,230.5 499.5,230.5C 498.643,233.043 497.31,235.377 495.5,237.5C 492.302,243.71 492.969,249.376 497.5,254.5C 495.604,255.466 493.604,255.799 491.5,255.5C 491.404,252.044 490.404,248.877 488.5,246C 484.272,246.669 479.938,247.502 475.5,248.5C 472.04,247.089 468.374,246.422 464.5,246.5C 461.934,243.711 459.6,240.711 457.5,237.5C 450.91,243.2 443.91,243.867 436.5,239.5C 433.925,229.273 428.925,227.939 421.5,235.5C 419.604,236.466 417.604,236.799 415.5,236.5C 415.5,234.833 415.5,233.167 415.5,231.5C 424.86,225.095 425.86,217.595 418.5,209C 416.975,207.991 415.308,207.491 413.5,207.5C 414.012,200.969 413.178,194.636 411,188.5C 409.174,186.926 407.007,186.093 404.5,186C 401.304,185.195 398.304,185.362 395.5,186.5C 392.794,186.575 390.127,186.908 387.5,187.5C 387.233,192.254 385.9,196.587 383.5,200.5C 383.437,202.481 384.104,204.148 385.5,205.5C 385.137,206.183 384.804,206.85 384.5,207.5C 383.833,207.5 383.167,207.5 382.5,207.5C 381.022,207.238 379.689,207.571 378.5,208.5C 376.192,210.251 374.192,212.251 372.5,214.5C 373.766,219.134 374.933,223.8 376,228.5C 378.237,230.204 380.737,231.204 383.5,231.5C 383.5,233.167 383.5,234.833 383.5,236.5C 377.435,236.165 372.769,233.498 369.5,228.5C 370.128,226.742 371.128,225.242 372.5,224C 371.552,223.517 370.552,223.351 369.5,223.5C 369.752,220.68 369.252,218.014 368,215.5C 367.5,221.825 367.334,228.158 367.5,234.5C 366.732,237.562 364.732,239.228 361.5,239.5C 360.022,239.762 358.689,239.429 357.5,238.5C 363.381,232.317 365.548,224.983 364,216.5C 362.167,214.667 360.333,212.833 358.5,211C 352.618,210.752 349.284,207.752 348.5,202C 350.929,195.421 348.596,192.754 341.5,194C 339.911,192.255 337.911,191.088 335.5,190.5C 340.772,189.322 346.105,188.655 351.5,188.5C 352.813,192.306 353.98,191.973 355,187.5C 355.512,178.208 356.012,168.874 356.5,159.5C 358.952,148.928 363.786,139.595 371,131.5C 376.315,126.342 382.481,122.675 389.5,120.5C 386.271,136.67 384.604,153.003 384.5,169.5 Z"/></g>
<g><path style="opacity:1" fill="#22547f" d="M 345.5,134.5 C 345.5,133.5 345.5,132.5 345.5,131.5C 340.367,134.214 335.033,136.547 329.5,138.5C 337.246,132.128 345.913,127.628 355.5,125C 352.324,128.343 348.991,131.51 345.5,134.5 Z"/></g>
<g><path style="opacity:1" fill="#1c5584" d="M 479.5,145.5 C 478.5,145.5 477.5,145.5 476.5,145.5C 476.5,146.5 476.5,147.5 476.5,148.5C 471.808,148.28 470.808,146.447 473.5,143C 469.89,141.056 466.557,138.723 463.5,136C 461.393,135.146 460.059,135.812 459.5,138C 460.891,140.873 463.225,142.539 466.5,143C 465.941,143.725 465.608,144.558 465.5,145.5C 466.852,149.38 468.686,153.046 471,156.5C 471.356,160.146 472.189,163.646 473.5,167C 473.272,167.399 472.938,167.565 472.5,167.5C 466.685,150.701 457.018,136.535 443.5,125C 457.036,129.014 469.036,135.847 479.5,145.5 Z"/></g>
<g><path style="opacity:1" fill="#03508c" d="M 345.5,134.5 C 334.917,148.667 327.25,164.334 322.5,181.5C 321.542,181.953 320.708,182.619 320,183.5C 319.57,186.192 319.737,188.859 320.5,191.5C 329.388,190.585 330.222,191.918 323,195.5C 322.51,196.793 322.343,198.127 322.5,199.5C 321.701,202.43 321.368,205.43 321.5,208.5C 321.5,211.167 321.5,213.833 321.5,216.5C 318.941,216.39 316.608,217.056 314.5,218.5C 312.08,222.88 309.58,227.213 307,231.5C 306.346,230.304 305.846,230.304 305.5,231.5C 306.311,232.216 306.978,233.05 307.5,234C 306.394,235.882 306.394,237.716 307.5,239.5C 308.187,237.726 309.02,236.059 310,234.5C 311,235.833 312,235.833 313,234.5C 313.273,236.101 313.773,237.601 314.5,239C 311.787,242.106 309.62,245.606 308,249.5C 307.505,251.473 307.338,253.473 307.5,255.5C 305.396,255.799 303.396,255.466 301.5,254.5C 303.086,252.827 303.753,250.827 303.5,248.5C 303.973,243.26 302.64,238.593 299.5,234.5C 299.586,233.504 299.252,232.671 298.5,232C 294.789,231.825 291.122,231.325 287.5,230.5C 285.549,221.047 279.882,215.547 270.5,214C 272.623,212.806 274.957,212.14 277.5,212C 278.38,210.644 278.714,209.144 278.5,207.5C 278.833,207.5 279.167,207.5 279.5,207.5C 282.58,207.252 285.58,206.586 288.5,205.5C 290.699,207.149 292.532,206.816 294,204.5C 295.056,195.149 296.223,185.816 297.5,176.5C 297.5,176.167 297.5,175.833 297.5,175.5C 298.5,175.5 299.5,175.5 300.5,175.5C 300.918,172.235 302.085,169.235 304,166.5C 305.154,165.257 306.488,164.257 308,163.5C 308.333,162.167 308.667,160.833 309,159.5C 309.333,160.167 309.667,160.833 310,161.5C 310.346,159.782 310.846,158.115 311.5,156.5C 313.561,153.73 316.061,151.396 319,149.5C 319.483,148.552 319.649,147.552 319.5,146.5C 319.414,145.504 319.748,144.671 320.5,144C 323.556,142.144 326.556,140.311 329.5,138.5C 335.033,136.547 340.367,134.214 345.5,131.5C 345.5,132.5 345.5,133.5 345.5,134.5 Z"/></g>
<g><path style="opacity:1" fill="#145082" d="M 478.5,127.5 C 480.5,127.5 482.5,127.5 484.5,127.5C 484.33,128.822 484.663,129.989 485.5,131C 487.556,131.311 489.556,131.811 491.5,132.5C 492.524,131.147 493.857,130.48 495.5,130.5C 495.714,132.144 495.38,133.644 494.5,135C 497.732,136.23 500.399,138.23 502.5,141C 502.043,141.414 501.709,141.914 501.5,142.5C 505.46,146.182 509.793,149.515 514.5,152.5C 515.561,155.622 516.894,158.622 518.5,161.5C 520.523,159.827 522.856,159.16 525.5,159.5C 525.5,160.5 525.5,161.5 525.5,162.5C 523.833,162.5 522.167,162.5 520.5,162.5C 520.5,164.167 520.5,165.833 520.5,167.5C 509.091,151.459 495.091,138.126 478.5,127.5 Z"/></g>
<g><path style="opacity:1" fill="#1f517b" d="M 319.5,146.5 C 319.649,147.552 319.483,148.552 319,149.5C 316.061,151.396 313.561,153.73 311.5,156.5C 310.846,158.115 310.346,159.782 310,161.5C 309.667,160.833 309.333,160.167 309,159.5C 308.667,160.833 308.333,162.167 308,163.5C 306.488,164.257 305.154,165.257 304,166.5C 302.085,169.235 300.918,172.235 300.5,175.5C 299.5,175.5 298.5,175.5 297.5,175.5C 302.658,164.031 309.992,154.364 319.5,146.5 Z"/></g>
<g><path style="opacity:1" fill="#5d87a6" d="M 384.5,169.5 C 384.5,173.5 384.5,177.5 384.5,181.5C 394.833,181.5 405.167,181.5 415.5,181.5C 405.013,182.494 394.346,182.828 383.5,182.5C 383.182,177.968 383.515,173.634 384.5,169.5 Z"/></g>
<g><path style="opacity:1" fill="#f7fbfb" d="M 395.5,186.5 C 410.614,186.568 414.948,193.401 408.5,207C 410.134,207.494 411.801,207.66 413.5,207.5C 415.308,207.491 416.975,207.991 418.5,209C 425.86,217.595 424.86,225.095 415.5,231.5C 407.809,232.741 402.643,229.741 400,222.5C 395.203,232.04 388.369,233.874 379.5,228C 373.522,220.043 374.522,213.21 382.5,207.5C 383.167,207.5 383.833,207.5 384.5,207.5C 390.367,208.263 391.533,206.597 388,202.5C 386.485,195.2 388.985,189.867 395.5,186.5 Z"/></g>
<g><path style="opacity:1" fill="#245580" d="M 395.5,186.5 C 398.304,185.362 401.304,185.195 404.5,186C 407.007,186.093 409.174,186.926 411,188.5C 413.178,194.636 414.012,200.969 413.5,207.5C 411.801,207.66 410.134,207.494 408.5,207C 414.948,193.401 410.614,186.568 395.5,186.5 Z"/></g>
<g><path style="opacity:1" fill="#f7fbfa" d="M 321.5,208.5 C 321.368,205.43 321.701,202.43 322.5,199.5C 328.726,192.491 335.56,191.824 343,197.5C 345.208,201.884 346.041,206.551 345.5,211.5C 358.621,210.257 363.787,215.924 361,228.5C 354.272,237.48 347.105,237.813 339.5,229.5C 336.57,239.423 330.237,242.59 320.5,239C 313.833,232 313.833,225 320.5,218C 322.715,216.956 325.048,216.29 327.5,216C 324.891,213.929 322.891,211.429 321.5,208.5 Z"/></g>
<g><path style="opacity:1" fill="#f6fbfa" d="M 478.5,239.5 C 468.434,242.384 462.267,238.717 460,228.5C 454.418,236.348 447.751,237.348 440,231.5C 434.574,220.362 437.74,213.362 449.5,210.5C 451.239,211.434 452.905,211.434 454.5,210.5C 451.942,201.274 455.276,195.607 464.5,193.5C 474.127,194.622 478.293,199.955 477,209.5C 476.117,212.102 474.617,214.269 472.5,216C 481.89,217.611 485.724,223.111 484,232.5C 482.334,234.996 480.5,237.329 478.5,239.5 Z"/></g>
<g><path style="opacity:1" fill="#1a517e" d="M 297.5,176.5 C 296.223,185.816 295.056,195.149 294,204.5C 292.532,206.816 290.699,207.149 288.5,205.5C 285.58,206.586 282.58,207.252 279.5,207.5C 283.232,204.547 287.398,202.213 292,200.5C 292.243,191.995 294.076,183.995 297.5,176.5 Z"/></g>
<g><path style="opacity:1" fill="#1c5480" d="M 395.5,186.5 C 388.985,189.867 386.485,195.2 388,202.5C 391.533,206.597 390.367,208.263 384.5,207.5C 384.804,206.85 385.137,206.183 385.5,205.5C 384.104,204.148 383.437,202.481 383.5,200.5C 385.9,196.587 387.233,192.254 387.5,187.5C 390.127,186.908 392.794,186.575 395.5,186.5 Z"/></g>
<g><path style="opacity:1" fill="#125186" d="M 270.5,183.5 C 266.368,193.485 264.701,203.818 265.5,214.5C 269.635,211.674 273.969,209.341 278.5,207.5C 278.714,209.144 278.38,210.644 277.5,212C 274.957,212.14 272.623,212.806 270.5,214C 279.882,215.547 285.549,221.047 287.5,230.5C 291.122,231.325 294.789,231.825 298.5,232C 299.252,232.671 299.586,233.504 299.5,234.5C 296.858,233.147 294.024,232.481 291,232.5C 288.648,232.305 286.648,232.972 285,234.5C 285.126,221.271 278.959,216.438 266.5,220C 272.13,232.094 278.13,243.927 284.5,255.5C 282.833,255.5 281.167,255.5 279.5,255.5C 279.785,253.712 279.452,252.045 278.5,250.5C 276.616,249.885 275.616,248.552 275.5,246.5C 276.526,244.257 276.359,242.257 275,240.5C 274.29,241.973 273.124,242.64 271.5,242.5C 270.206,238.985 269.372,235.318 269,231.5C 266.846,226.641 264.679,226.475 262.5,231C 263.348,233.77 263.681,236.603 263.5,239.5C 261.856,239.714 260.356,239.38 259,238.5C 258.976,232.79 258.81,227.123 258.5,221.5C 261.472,214.139 262.972,206.473 263,198.5C 265.392,193.326 267.392,187.992 269,182.5C 269.383,183.056 269.883,183.389 270.5,183.5 Z"/></g>
<g><path style="opacity:1" fill="#145082" d="M 479.5,146.5 C 496.851,160.201 506.018,178.201 507,200.5C 516.111,205.305 525.277,209.972 534.5,214.5C 533.167,215.833 531.833,217.167 530.5,218.5C 525.684,217.839 521.351,218.839 517.5,221.5C 517.33,220.178 517.663,219.011 518.5,218C 521.345,217.462 524.012,216.462 526.5,215C 523.833,214.333 523.833,213.667 526.5,213C 524.782,212.654 523.115,212.154 521.5,211.5C 518.681,208.925 515.681,206.592 512.5,204.5C 509.532,205.368 506.699,205.701 504,205.5C 502.994,203.466 502.494,201.3 502.5,199C 503.169,195.501 503.336,192.001 503,188.5C 501.853,185.382 500.52,182.382 499,179.5C 497.978,181.702 497.478,184.035 497.5,186.5C 499.245,190.836 498.745,194.836 496,198.5C 495.063,189.748 495.563,181.415 497.5,173.5C 496.063,171.423 495.396,169.09 495.5,166.5C 494.167,166.5 492.833,166.5 491.5,166.5C 490.31,163.259 489.31,159.926 488.5,156.5C 486.955,155.548 485.288,155.215 483.5,155.5C 483.785,153.712 483.452,152.045 482.5,150.5C 480.45,149.923 479.45,148.59 479.5,146.5 Z"/></g>
<g><path style="opacity:1" fill="#165183" d="M 382.5,207.5 C 374.522,213.21 373.522,220.043 379.5,228C 388.369,233.874 395.203,232.04 400,222.5C 402.643,229.741 407.809,232.741 415.5,231.5C 415.5,233.167 415.5,234.833 415.5,236.5C 417.604,236.799 419.604,236.466 421.5,235.5C 428.925,227.939 433.925,229.273 436.5,239.5C 433.827,237.494 431.494,235.161 429.5,232.5C 423.169,238.524 415.835,240.024 407.5,237C 405.01,234.345 402.344,231.845 399.5,229.5C 393.463,237.849 385.463,240.349 375.5,237C 373.667,235.167 371.833,233.333 370,231.5C 369.148,232.571 368.315,233.571 367.5,234.5C 367.334,228.158 367.5,221.825 368,215.5C 369.252,218.014 369.752,220.68 369.5,223.5C 370.552,223.351 371.552,223.517 372.5,224C 371.128,225.242 370.128,226.742 369.5,228.5C 372.769,233.498 377.435,236.165 383.5,236.5C 383.5,234.833 383.5,233.167 383.5,231.5C 380.737,231.204 378.237,230.204 376,228.5C 374.933,223.8 373.766,219.134 372.5,214.5C 374.192,212.251 376.192,210.251 378.5,208.5C 379.689,207.571 381.022,207.238 382.5,207.5 Z"/></g>
<g><path style="opacity:1" fill="#1b517d" d="M 446.5,184.5 C 456.792,186.088 466.792,188.421 476.5,191.5C 474.143,191.337 471.81,191.503 469.5,192C 471.947,193.575 474.447,195.075 477,196.5C 477.36,198.608 478.027,200.608 479,202.5C 478.91,207.278 478.077,211.945 476.5,216.5C 479.747,216.415 482.581,217.415 485,219.5C 485.712,225.028 485.546,230.528 484.5,236C 483.617,238.906 481.617,240.073 478.5,239.5C 480.5,237.329 482.334,234.996 484,232.5C 485.724,223.111 481.89,217.611 472.5,216C 474.617,214.269 476.117,212.102 477,209.5C 478.293,199.955 474.127,194.622 464.5,193.5C 455.276,195.607 451.942,201.274 454.5,210.5C 452.905,211.434 451.239,211.434 449.5,210.5C 450.209,209.596 451.209,209.263 452.5,209.5C 452.334,205.486 452.501,201.486 453,197.5C 455.46,196.245 456.627,194.245 456.5,191.5C 459.249,191.274 461.916,191.607 464.5,192.5C 465.795,191.902 467.128,191.402 468.5,191C 468.167,190.667 467.833,190.333 467.5,190C 463.167,189.667 458.833,189.333 454.5,189C 451.316,188.246 448.649,186.746 446.5,184.5 Z"/></g>
<g><path style="opacity:1" fill="#f5fbfa" d="M 530.5,218.5 C 531.478,218.811 532.145,219.478 532.5,220.5C 528.23,228.707 524.23,237.04 520.5,245.5C 518.335,254.476 512.669,257.976 503.5,256C 493.692,249.535 493.026,242.201 501.5,234C 505.748,232.236 510.081,232.069 514.5,233.5C 514.5,231.833 514.5,230.167 514.5,228.5C 514.925,225.881 515.925,223.547 517.5,221.5C 521.351,218.839 525.684,217.839 530.5,218.5 Z"/></g>
<g><path style="opacity:1" fill="#185284" d="M 356.5,159.5 C 356.012,168.874 355.512,178.208 355,187.5C 353.98,191.973 352.813,192.306 351.5,188.5C 346.105,188.655 340.772,189.322 335.5,190.5C 337.911,191.088 339.911,192.255 341.5,194C 348.596,192.754 350.929,195.421 348.5,202C 349.284,207.752 352.618,210.752 358.5,211C 360.333,212.833 362.167,214.667 364,216.5C 365.548,224.983 363.381,232.317 357.5,238.5C 358.689,239.429 360.022,239.762 361.5,239.5C 354.499,243.839 347.832,243.173 341.5,237.5C 335.165,250.668 325.665,253.668 313,246.5C 311.553,252.412 308.386,257.079 303.5,260.5C 303.586,259.504 303.252,258.671 302.5,258C 299.131,257.337 295.797,257.504 292.5,258.5C 289.673,258.165 287.673,257.499 286.5,256.5C 294.133,257.639 299.799,254.972 303.5,248.5C 303.753,250.827 303.086,252.827 301.5,254.5C 303.396,255.466 305.396,255.799 307.5,255.5C 307.338,253.473 307.505,251.473 308,249.5C 309.62,245.606 311.787,242.106 314.5,239C 313.773,237.601 313.273,236.101 313,234.5C 312,235.833 311,235.833 310,234.5C 309.02,236.059 308.187,237.726 307.5,239.5C 306.394,237.716 306.394,235.882 307.5,234C 306.978,233.05 306.311,232.216 305.5,231.5C 305.846,230.304 306.346,230.304 307,231.5C 309.58,227.213 312.08,222.88 314.5,218.5C 316.608,217.056 318.941,216.39 321.5,216.5C 321.5,213.833 321.5,211.167 321.5,208.5C 322.891,211.429 324.891,213.929 327.5,216C 325.048,216.29 322.715,216.956 320.5,218C 313.833,225 313.833,232 320.5,239C 330.237,242.59 336.57,239.423 339.5,229.5C 347.105,237.813 354.272,237.48 361,228.5C 363.787,215.924 358.621,210.257 345.5,211.5C 346.041,206.551 345.208,201.884 343,197.5C 335.56,191.824 328.726,192.491 322.5,199.5C 322.343,198.127 322.51,196.793 323,195.5C 330.222,191.918 329.388,190.585 320.5,191.5C 319.737,188.859 319.57,186.192 320,183.5C 320.708,182.619 321.542,181.953 322.5,181.5C 321.701,184.43 321.368,187.43 321.5,190.5C 331.724,187.989 342.057,185.989 352.5,184.5C 352.053,175.758 353.386,167.425 356.5,159.5 Z"/></g>
<g><path style="opacity:1" fill="#f8fcfb" d="M 436.5,239.5 C 443.91,243.867 450.91,243.2 457.5,237.5C 459.6,240.711 461.934,243.711 464.5,246.5C 467.092,249.456 470.426,250.789 474.5,250.5C 478.986,250.56 482.986,249.227 486.5,246.5C 490.425,260.796 499.425,265.629 513.5,261C 510.752,265.661 508.419,270.495 506.5,275.5C 506.5,275.833 506.5,276.167 506.5,276.5C 504.603,279.286 502.937,282.286 501.5,285.5C 482.441,273.757 461.775,266.257 439.5,263C 416.1,257.906 392.767,257.406 369.5,261.5C 368.833,261.5 368.167,261.5 367.5,261.5C 355.747,262.895 344.414,265.562 333.5,269.5C 320.867,272.992 309.033,278.325 298,285.5C 293.91,277.653 290.077,269.653 286.5,261.5C 286.833,261.167 287.167,260.833 287.5,260.5C 292.859,263.161 298.193,263.161 303.5,260.5C 308.386,257.079 311.553,252.412 313,246.5C 325.665,253.668 335.165,250.668 341.5,237.5C 347.832,243.173 354.499,243.839 361.5,239.5C 364.732,239.228 366.732,237.562 367.5,234.5C 368.315,233.571 369.148,232.571 370,231.5C 371.833,233.333 373.667,235.167 375.5,237C 385.463,240.349 393.463,237.849 399.5,229.5C 402.344,231.845 405.01,234.345 407.5,237C 415.835,240.024 423.169,238.524 429.5,232.5C 431.494,235.161 433.827,237.494 436.5,239.5 Z"/></g>
<g><path style="opacity:1" fill="#f8fbfa" d="M 299.5,234.5 C 302.64,238.593 303.973,243.26 303.5,248.5C 299.799,254.972 294.133,257.639 286.5,256.5C 286.158,255.662 285.492,255.328 284.5,255.5C 278.13,243.927 272.13,232.094 266.5,220C 278.959,216.438 285.126,221.271 285,234.5C 286.648,232.972 288.648,232.305 291,232.5C 294.024,232.481 296.858,233.147 299.5,234.5 Z"/></g>
<g><path style="opacity:1" fill="#165285" d="M 514.5,228.5 C 514.5,230.167 514.5,231.833 514.5,233.5C 510.081,232.069 505.748,232.236 501.5,234C 493.026,242.201 493.692,249.535 503.5,256C 512.669,257.976 518.335,254.476 520.5,245.5C 520.5,248.167 520.5,250.833 520.5,253.5C 521.978,253.238 523.311,253.571 524.5,254.5C 522.667,256.166 521.334,258.166 520.5,260.5C 519.914,260.291 519.414,259.957 519,259.5C 517.448,263.333 515.615,267 513.5,270.5C 511.71,272.961 509.377,274.627 506.5,275.5C 508.419,270.495 510.752,265.661 513.5,261C 499.425,265.629 490.425,260.796 486.5,246.5C 482.986,249.227 478.986,250.56 474.5,250.5C 470.426,250.789 467.092,249.456 464.5,246.5C 468.374,246.422 472.04,247.089 475.5,248.5C 479.938,247.502 484.272,246.669 488.5,246C 490.404,248.877 491.404,252.044 491.5,255.5C 493.604,255.799 495.604,255.466 497.5,254.5C 492.969,249.376 492.302,243.71 495.5,237.5C 497.31,235.377 498.643,233.043 499.5,230.5C 498.167,230.5 496.833,230.5 495.5,230.5C 495.5,229.167 495.5,227.833 495.5,226.5C 500.221,227.925 505.054,229.259 510,230.5C 511.787,230.241 513.287,229.575 514.5,228.5 Z"/></g>
<g><path style="opacity:1" fill="#f3fafa" d="M 337.5,301.5 C 334.767,305.871 330.767,308.204 325.5,308.5C 325.542,301.326 326.709,294.326 329,287.5C 330.711,284.041 332.877,281.041 335.5,278.5C 339.149,275.693 343.149,275.026 347.5,276.5C 343.715,284.63 340.381,292.963 337.5,301.5 Z"/></g>
<g><path style="opacity:1" fill="#f4fafa" d="M 319.5,283.5 C 321.199,283.34 322.866,283.506 324.5,284C 323.283,285.648 322.45,287.481 322,289.5C 320.654,297.241 318.988,304.908 317,312.5C 314.833,314.667 312.667,316.833 310.5,319C 308.866,319.494 307.199,319.66 305.5,319.5C 305.982,311.07 307.148,302.737 309,294.5C 311.357,289.645 314.857,285.979 319.5,283.5 Z"/></g>
<g><path style="opacity:1" fill="#165287" d="M 506.5,276.5 C 506.668,280.169 505.668,283.502 503.5,286.5C 505.396,287.466 507.396,287.799 509.5,287.5C 509.215,285.712 509.548,284.045 510.5,282.5C 511.466,284.396 511.799,286.396 511.5,288.5C 508.5,288.5 505.5,288.5 502.5,288.5C 502.162,291.157 502.829,293.49 504.5,295.5C 503.885,297.116 502.885,298.449 501.5,299.5C 501.957,300.298 502.624,300.631 503.5,300.5C 496.504,304.327 489.171,307.66 481.5,310.5C 483.836,308.927 483.836,307.594 481.5,306.5C 485.978,303.76 490.644,301.26 495.5,299C 497.74,298.023 500.073,297.523 502.5,297.5C 502.67,296.178 502.337,295.011 501.5,294C 494.531,289.003 487.198,288.337 479.5,292C 474.557,295.637 469.223,298.471 463.5,300.5C 456.479,301.595 449.479,301.595 442.5,300.5C 442.5,299.167 442.5,297.833 442.5,296.5C 437.501,297.084 432.501,297.251 427.5,297C 425.263,295.142 423.43,292.976 422,290.5C 420.67,291.582 419.17,292.249 417.5,292.5C 422.514,288.173 426.847,283.173 430.5,277.5C 433.167,275.833 435.833,274.167 438.5,272.5C 430.105,266.487 422.605,267.487 416,275.5C 412.749,281.004 409.249,286.338 405.5,291.5C 406.025,292.192 406.692,292.692 407.5,293C 410.146,293.497 412.813,293.664 415.5,293.5C 417.244,295.75 419.244,297.917 421.5,300C 419.527,300.495 417.527,300.662 415.5,300.5C 415.657,299.127 415.49,297.793 415,296.5C 412.931,297.264 410.764,297.764 408.5,298C 406.875,298.853 406.542,299.853 407.5,301C 406.874,301.75 406.374,302.584 406,303.5C 405.667,310.167 405.333,316.833 405,323.5C 404.768,324.737 404.268,325.737 403.5,326.5C 403.825,318.648 403.492,310.982 402.5,303.5C 402.167,303.5 401.833,303.5 401.5,303.5C 402.452,301.888 402.786,300.388 402.5,299C 400.309,296.902 398.976,294.402 398.5,291.5C 403.824,284.196 409.157,276.863 414.5,269.5C 407.423,266.162 401.256,267.495 396,273.5C 392.855,279.26 389.521,284.927 386,290.5C 385.479,293.118 386.646,294.451 389.5,294.5C 392.19,293.493 394.856,292.493 397.5,291.5C 397.288,293.384 396.288,294.717 394.5,295.5C 390.893,296.489 387.226,296.823 383.5,296.5C 383.5,297.833 383.5,299.167 383.5,300.5C 382.5,300.5 381.5,300.5 380.5,300.5C 380.227,298.549 380.893,297.049 382.5,296C 382,295.5 381.5,295 381,294.5C 379.883,295.949 379.216,297.616 379,299.5C 377.612,300.554 376.112,300.72 374.5,300C 375.5,299.667 376.5,299.333 377.5,299C 378.833,298.333 378.833,297.667 377.5,297C 372.845,296.501 368.179,296.334 363.5,296.5C 363.5,297.5 363.5,298.5 363.5,299.5C 361.167,298.833 358.833,298.167 356.5,297.5C 360.657,292.183 363.491,286.183 365,279.5C 366.586,276.659 368.42,273.993 370.5,271.5C 365.929,269.989 361.596,270.489 357.5,273C 350.39,280.817 346.057,289.984 344.5,300.5C 348.444,300.887 352.111,300.22 355.5,298.5C 355.047,299.458 354.381,300.292 353.5,301C 350.748,301.212 348.248,302.045 346,303.5C 344.127,302.132 342.46,300.466 341,298.5C 340.517,299.448 340.351,300.448 340.5,301.5C 339.5,301.5 338.5,301.5 337.5,301.5C 340.381,292.963 343.715,284.63 347.5,276.5C 343.149,275.026 339.149,275.693 335.5,278.5C 335.5,277.167 335.5,275.833 335.5,274.5C 339.064,274.312 342.397,273.312 345.5,271.5C 347.5,272.833 349.5,274.167 351.5,275.5C 354.492,275.191 355.825,273.524 355.5,270.5C 359.457,269.589 363.457,268.589 367.5,267.5C 367.5,266.5 367.5,265.5 367.5,264.5C 356.073,265.862 344.74,267.528 333.5,269.5C 344.414,265.562 355.747,262.895 367.5,261.5C 370.182,263.08 373.182,264.246 376.5,265C 374.221,265.473 372.221,266.473 370.5,268C 371.167,268.667 371.833,269.333 372.5,270C 375.985,270.326 379.318,269.826 382.5,268.5C 373.068,275.011 367.401,284.011 365.5,295.5C 372.401,295.776 377.901,293.109 382,287.5C 384.743,281.008 388.243,275.008 392.5,269.5C 392.137,268.817 391.804,268.15 391.5,267.5C 398.837,266.999 406.17,266.832 413.5,267C 414.662,267.827 415.829,268.66 417,269.5C 420.145,268.589 423.312,267.755 426.5,267C 422.848,266.501 419.182,266.335 415.5,266.5C 415.5,265.5 415.5,264.5 415.5,263.5C 427.334,263.575 427.334,262.741 415.5,261C 406.482,260.168 397.482,260.335 388.5,261.5C 392.107,262.489 395.774,262.823 399.5,262.5C 399.719,263.675 399.386,264.675 398.5,265.5C 393.703,265.12 388.703,264.787 383.5,264.5C 383.5,263.5 383.5,262.5 383.5,261.5C 378.833,261.5 374.167,261.5 369.5,261.5C 392.767,257.406 416.1,257.906 439.5,263C 461.775,266.257 482.441,273.757 501.5,285.5C 502.937,282.286 504.603,279.286 506.5,276.5 Z"/></g>
<g><path style="opacity:1" fill="#f1f8f8" d="M 398.5,291.5 C 398.167,291.5 397.833,291.5 397.5,291.5C 394.856,292.493 392.19,293.493 389.5,294.5C 386.646,294.451 385.479,293.118 386,290.5C 389.521,284.927 392.855,279.26 396,273.5C 401.256,267.495 407.423,266.162 414.5,269.5C 409.157,276.863 403.824,284.196 398.5,291.5 Z"/></g>
<g><path style="opacity:1" fill="#eef7f8" d="M 391.5,267.5 C 391.804,268.15 392.137,268.817 392.5,269.5C 388.243,275.008 384.743,281.008 382,287.5C 377.901,293.109 372.401,295.776 365.5,295.5C 367.401,284.011 373.068,275.011 382.5,268.5C 385.391,267.597 388.391,267.264 391.5,267.5 Z"/></g>
<g><path style="opacity:1" fill="#f5fbfa" d="M 466.5,279.5 C 472.071,278.817 477.071,280.151 481.5,283.5C 482.59,284.609 482.59,285.609 481.5,286.5C 473.446,291.194 465.112,295.361 456.5,299C 444.711,300.606 443.045,297.606 451.5,290C 455.902,285.481 460.902,281.981 466.5,279.5 Z"/></g>
<g><path style="opacity:1" fill="#f0f9f9" d="M 445.5,273.5 C 448.85,273.335 452.183,273.502 455.5,274C 457.555,274.687 459.221,275.854 460.5,277.5C 453.462,281.367 447.129,286.2 441.5,292C 436.412,294.987 431.412,295.153 426.5,292.5C 431.216,284.451 437.549,278.118 445.5,273.5 Z"/></g>
<g><path style="opacity:1" fill="#f1f8f8" d="M 417.5,292.5 C 416.508,292.328 415.842,292.662 415.5,293.5C 412.813,293.664 410.146,293.497 407.5,293C 406.692,292.692 406.025,292.192 405.5,291.5C 409.249,286.338 412.749,281.004 416,275.5C 422.605,267.487 430.105,266.487 438.5,272.5C 435.833,274.167 433.167,275.833 430.5,277.5C 426.847,283.173 422.514,288.173 417.5,292.5 Z"/></g>
<g><path style="opacity:1" fill="#f0f8f8" d="M 356.5,297.5 C 355.833,297.5 355.5,297.833 355.5,298.5C 352.111,300.22 348.444,300.887 344.5,300.5C 346.057,289.984 350.39,280.817 357.5,273C 361.596,270.489 365.929,269.989 370.5,271.5C 368.42,273.993 366.586,276.659 365,279.5C 363.491,286.183 360.657,292.183 356.5,297.5 Z"/></g>
<g><path style="opacity:1" fill="#025190" d="M 391.5,267.5 C 388.391,267.264 385.391,267.597 382.5,268.5C 379.318,269.826 375.985,270.326 372.5,270C 371.833,269.333 371.167,268.667 370.5,268C 372.221,266.473 374.221,265.473 376.5,265C 373.182,264.246 370.182,263.08 367.5,261.5C 368.167,261.5 368.833,261.5 369.5,261.5C 374.167,261.5 378.833,261.5 383.5,261.5C 383.5,262.5 383.5,263.5 383.5,264.5C 388.703,264.787 393.703,265.12 398.5,265.5C 399.386,264.675 399.719,263.675 399.5,262.5C 395.774,262.823 392.107,262.489 388.5,261.5C 397.482,260.335 406.482,260.168 415.5,261C 427.334,262.741 427.334,263.575 415.5,263.5C 415.5,264.5 415.5,265.5 415.5,266.5C 419.182,266.335 422.848,266.501 426.5,267C 423.312,267.755 420.145,268.589 417,269.5C 415.829,268.66 414.662,267.827 413.5,267C 406.17,266.832 398.837,266.999 391.5,267.5 Z"/></g>
<g><path style="opacity:1" fill="#f3fafa" d="M 481.5,306.5 C 477.51,307.19 473.51,307.357 469.5,307C 465.901,306.236 463.901,304.07 463.5,300.5C 469.223,298.471 474.557,295.637 479.5,292C 487.198,288.337 494.531,289.003 501.5,294C 502.337,295.011 502.67,296.178 502.5,297.5C 500.073,297.523 497.74,298.023 495.5,299C 490.644,301.26 485.978,303.76 481.5,306.5 Z"/></g>
<g><path style="opacity:1" fill="#f6fbfa" d="M 296.5,327.5 C 294.287,329.528 291.787,331.195 289,332.5C 288.275,322.806 288.441,313.14 289.5,303.5C 291.595,300.235 294.262,297.401 297.5,295C 299.579,294.192 301.579,294.359 303.5,295.5C 301.785,303.383 300.619,311.383 300,319.5C 298.924,322.237 297.757,324.904 296.5,327.5 Z"/></g>
<g><path style="opacity:1" fill="#f2f9fa" d="M 503.5,300.5 C 505.167,300.5 506.833,300.5 508.5,300.5C 511.421,301.065 514.088,302.232 516.5,304C 518.607,305.264 519.607,307.097 519.5,309.5C 511.652,310.948 503.985,313.115 496.5,316C 493.183,316.498 489.85,316.665 486.5,316.5C 484.117,315.115 482.45,313.115 481.5,310.5C 489.171,307.66 496.504,304.327 503.5,300.5 Z"/></g>
<g><path style="opacity:1" fill="#1a517e" d="M 279.5,342.5 C 280.64,340.22 281.807,337.886 283,335.5C 282.675,325.805 282.842,316.138 283.5,306.5C 277.99,308.009 273.99,311.342 271.5,316.5C 272.213,312.141 272.547,307.808 272.5,303.5C 274.719,308.614 277.386,308.781 280.5,304C 281.793,303.51 283.127,303.343 284.5,303.5C 284.129,315.465 283.963,327.465 284,339.5C 282.385,340.386 280.885,341.386 279.5,342.5 Z"/></g>
<g><path style="opacity:1" fill="#185384" d="M 553.5,340.5 C 553.5,339.833 553.167,339.5 552.5,339.5C 548.609,330.235 541.609,326.735 531.5,329C 526.898,330.48 522.231,331.646 517.5,332.5C 517.918,331.778 518.584,331.278 519.5,331C 514.279,329.768 508.946,329.101 503.5,329C 501.541,328.069 499.541,327.236 497.5,326.5C 494.005,321.836 495.005,319.503 500.5,319.5C 499.016,320.473 498.516,321.807 499,323.5C 503.922,328.202 509.755,329.702 516.5,328C 522.974,325.674 529.641,324.507 536.5,324.5C 536.66,322.801 536.494,321.134 536,319.5C 530.607,314.973 524.44,313.473 517.5,315C 512.734,316.218 508.067,317.718 503.5,319.5C 503.209,318.351 502.376,317.684 501,317.5C 498.192,318.026 495.358,318.359 492.5,318.5C 490.048,318.461 488.048,317.794 486.5,316.5C 489.85,316.665 493.183,316.498 496.5,316C 503.985,313.115 511.652,310.948 519.5,309.5C 519.607,307.097 518.607,305.264 516.5,304C 514.088,302.232 511.421,301.065 508.5,300.5C 510.706,298.32 513.373,297.487 516.5,298C 517.884,301.319 519.55,304.485 521.5,307.5C 521.278,309.055 520.611,310.389 519.5,311.5C 528.456,311.978 535.789,315.645 541.5,322.5C 539.069,323.36 537.736,325.027 537.5,327.5C 541.571,327.234 545.571,327.567 549.5,328.5C 551.194,331.906 553.36,334.906 556,337.5C 556.483,338.448 556.649,339.448 556.5,340.5C 555.5,340.5 554.5,340.5 553.5,340.5 Z"/></g>
<g><path style="opacity:1" fill="#f0f8f9" d="M 279.5,342.5 C 278.833,342.5 278.5,342.833 278.5,343.5C 276.742,343.877 275.075,344.544 273.5,345.5C 272.76,339.981 271.76,334.648 270.5,329.5C 270.372,325.119 270.705,320.785 271.5,316.5C 273.99,311.342 277.99,308.009 283.5,306.5C 282.842,316.138 282.675,325.805 283,335.5C 281.807,337.886 280.64,340.22 279.5,342.5 Z"/></g>
<g><path style="opacity:1" fill="#eff9f9" d="M 500.5,319.5 C 501.5,319.5 502.5,319.5 503.5,319.5C 508.067,317.718 512.734,316.218 517.5,315C 524.44,313.473 530.607,314.973 536,319.5C 536.494,321.134 536.66,322.801 536.5,324.5C 529.641,324.507 522.974,325.674 516.5,328C 509.755,329.702 503.922,328.202 499,323.5C 498.516,321.807 499.016,320.473 500.5,319.5 Z"/></g>
<g><path style="opacity:1" fill="#194f76" d="M 266.5,321.5 C 265.209,321.263 264.209,321.596 263.5,322.5C 259.665,324.991 256.998,328.325 255.5,332.5C 256.482,328.523 257.482,324.523 258.5,320.5C 259.667,320.167 260.833,319.833 262,319.5C 264.008,319.307 265.508,319.974 266.5,321.5 Z"/></g>
<g><path style="opacity:1" fill="#71a0b1" d="M 263.5,322.5 C 264.209,321.596 265.209,321.263 266.5,321.5C 266.5,324.167 266.5,326.833 266.5,329.5C 266.083,326.841 265.083,324.508 263.5,322.5 Z"/></g>
<g><path style="opacity:1" fill="#f4fafa" d="M 552.5,339.5 C 548.167,340.167 543.833,340.833 539.5,341.5C 533.491,341.666 527.491,341.499 521.5,341C 517.582,339.917 515.248,337.417 514.5,333.5C 515.209,332.596 516.209,332.263 517.5,332.5C 522.231,331.646 526.898,330.48 531.5,329C 541.609,326.735 548.609,330.235 552.5,339.5 Z"/></g>
<g><path style="opacity:1" fill="#1e537f" d="M 289.5,303.5 C 288.441,313.14 288.275,322.806 289,332.5C 291.787,331.195 294.287,329.528 296.5,327.5C 296.188,330.888 297.521,333.388 300.5,335C 297.863,335.455 295.363,334.955 293,333.5C 291.2,334.378 289.367,335.045 287.5,335.5C 286.857,324.448 287.524,313.781 289.5,303.5 Z"/></g>
<g><path style="opacity:1" fill="#f4fafb" d="M 263.5,322.5 C 265.083,324.508 266.083,326.841 266.5,329.5C 266.205,331.735 266.539,333.735 267.5,335.5C 269.514,343.514 268.681,351.181 265,358.5C 263.649,360.019 262.149,361.352 260.5,362.5C 259.342,359.524 258.342,356.524 257.5,353.5C 256.008,346.599 255.341,339.599 255.5,332.5C 256.998,328.325 259.665,324.991 263.5,322.5 Z"/></g>
<g><path style="opacity:1" fill="#eff7fa" d="M 352.5,318.5 C 353.675,318.281 354.675,318.614 355.5,319.5C 363.546,331.094 371.213,342.928 378.5,355C 377.022,356.478 375.522,357.978 374,359.5C 365.637,347.302 357.47,334.969 349.5,322.5C 350.524,321.148 351.524,319.815 352.5,318.5 Z"/></g>
<g><path style="opacity:1" fill="#6d95b1" d="M 552.5,339.5 C 553.167,339.5 553.5,339.833 553.5,340.5C 553.5,340.833 553.5,341.167 553.5,341.5C 548.833,341.5 544.167,341.5 539.5,341.5C 543.833,340.833 548.167,340.167 552.5,339.5 Z"/></g>
<g><path style="opacity:1" fill="#185282" d="M 514.5,333.5 C 515.248,337.417 517.582,339.917 521.5,341C 527.491,341.499 533.491,341.666 539.5,341.5C 544.167,341.5 548.833,341.5 553.5,341.5C 553.414,342.496 553.748,343.329 554.5,344C 558.108,344.026 561.442,344.859 564.5,346.5C 565.223,349.07 566.39,351.403 568,353.5C 568.78,355.387 568.613,357.054 567.5,358.5C 567.186,353.174 564.52,349.841 559.5,348.5C 559.158,347.662 558.492,347.328 557.5,347.5C 557.082,346.778 556.416,346.278 555.5,346C 546.481,345.358 537.481,345.525 528.5,346.5C 528.629,348.216 528.962,349.883 529.5,351.5C 528.001,350.322 527.001,348.655 526.5,346.5C 522.847,343.338 518.847,340.672 514.5,338.5C 513.646,337.052 512.646,335.719 511.5,334.5C 512.325,333.614 513.325,333.281 514.5,333.5 Z"/></g>
<g><path style="opacity:1" fill="#edf7f9" d="M 447.5,319.5 C 448.8,320.601 449.3,321.934 449,323.5C 441.313,335.554 433.147,347.221 424.5,358.5C 422.483,357.826 420.817,356.659 419.5,355C 424.055,348.618 428.389,342.118 432.5,335.5C 436.225,330.403 439.725,325.07 443,319.5C 444.414,318.587 445.914,318.587 447.5,319.5 Z"/></g>
<g><path style="opacity:1" fill="#e2f5fa" d="M 557.5,347.5 C 550.135,347.398 542.468,347.565 534.5,348C 534.167,348.333 533.833,348.667 533.5,349C 534.167,350.667 534.833,352.333 535.5,354C 538.146,354.497 540.813,354.664 543.5,354.5C 543.5,355.5 543.5,356.5 543.5,357.5C 550.175,357.666 556.842,357.5 563.5,357C 564.539,353.603 563.206,351.77 559.5,351.5C 559.5,350.5 559.5,349.5 559.5,348.5C 564.52,349.841 567.186,353.174 567.5,358.5C 567.5,359.167 567.5,359.833 567.5,360.5C 558.601,358.904 549.601,358.07 540.5,358C 536.689,356.93 533.356,355.097 530.5,352.5C 530.5,351.833 530.167,351.5 529.5,351.5C 528.962,349.883 528.629,348.216 528.5,346.5C 537.481,345.525 546.481,345.358 555.5,346C 556.416,346.278 557.082,346.778 557.5,347.5 Z"/></g>
<g><path style="opacity:1" fill="#fcfcfa" d="M 557.5,347.5 C 558.492,347.328 559.158,347.662 559.5,348.5C 559.5,349.5 559.5,350.5 559.5,351.5C 563.206,351.77 564.539,353.603 563.5,357C 556.842,357.5 550.175,357.666 543.5,357.5C 543.5,356.5 543.5,355.5 543.5,354.5C 540.813,354.664 538.146,354.497 535.5,354C 534.833,352.333 534.167,350.667 533.5,349C 533.833,348.667 534.167,348.333 534.5,348C 542.468,347.565 550.135,347.398 557.5,347.5 Z"/></g>
<g><path style="opacity:1" fill="#f8fcfb" d="M 399.5,335.5 C 403.939,347.159 407.606,359.159 410.5,371.5C 422.833,371.5 435.167,371.5 447.5,371.5C 448.239,371.369 448.906,371.536 449.5,372C 439.397,379.136 429.564,386.636 420,394.5C 422.243,406.017 425.41,417.35 429.5,428.5C 429.376,429.107 429.043,429.44 428.5,429.5C 419.033,422.928 409.366,416.595 399.5,410.5C 394.101,414.189 388.767,417.856 383.5,421.5C 379.78,423.05 376.447,425.217 373.5,428C 372.241,428.982 370.908,429.315 369.5,429C 373.353,418.246 377.02,407.412 380.5,396.5C 371.914,388.081 362.58,380.581 352.5,374C 351.001,373.162 350.668,372.329 351.5,371.5C 363.833,371.5 376.167,371.5 388.5,371.5C 391.768,359.364 395.434,347.364 399.5,335.5 Z"/></g>
<g><path style="opacity:1" fill="#f4faf9" d="M 253.5,369.5 C 253.353,372.792 252.353,375.792 250.5,378.5C 249.206,379.29 248.039,380.29 247,381.5C 244.683,374.857 242.349,368.191 240,361.5C 239.502,358.183 239.335,354.85 239.5,351.5C 240.801,348.899 242.134,346.232 243.5,343.5C 245.053,341.615 247.053,340.615 249.5,340.5C 252.027,349.995 253.36,359.662 253.5,369.5 Z"/></g>
<g><path style="opacity:1" fill="#ecf7f9" d="M 305.5,352.5 C 315.358,356.564 325.358,360.23 335.5,363.5C 335.167,365.5 334.833,367.5 334.5,369.5C 324.245,366.88 314.245,363.38 304.5,359C 304.043,358.586 303.709,358.086 303.5,357.5C 304.456,355.925 305.123,354.258 305.5,352.5 Z"/></g>
<g><path style="opacity:1" fill="#1c5584" d="M 396.5,303.5 C 396.5,311.167 396.5,318.833 396.5,326.5C 398.5,326.5 400.5,326.5 402.5,326.5C 402.5,318.833 402.5,311.167 402.5,303.5C 403.492,310.982 403.825,318.648 403.5,326.5C 403.604,329.09 402.937,331.423 401.5,333.5C 401.868,334.91 402.701,335.91 404,336.5C 404.884,343.703 406.551,350.703 409,357.5C 409.615,359.116 410.615,360.449 412,361.5C 412.495,363.473 412.662,365.473 412.5,367.5C 413.5,367.5 414.5,367.5 415.5,367.5C 415.523,359.823 416.523,359.823 418.5,367.5C 420.833,367.5 423.167,367.5 425.5,367.5C 425.657,366.127 425.49,364.793 425,363.5C 419.294,361.422 417.294,357.422 419,351.5C 420,349.167 421,346.833 422,344.5C 424.713,342.108 427.213,339.441 429.5,336.5C 430.325,335.614 431.325,335.281 432.5,335.5C 428.389,342.118 424.055,348.618 419.5,355C 420.817,356.659 422.483,357.826 424.5,358.5C 433.147,347.221 441.313,335.554 449,323.5C 449.3,321.934 448.8,320.601 447.5,319.5C 451.781,318.483 454.114,320.15 454.5,324.5C 453.333,327.356 451.333,329.356 448.5,330.5C 447.671,335.467 447.171,340.467 447,345.5C 445.672,342.214 444.339,338.881 443,335.5C 439.921,340.399 437.088,345.399 434.5,350.5C 433.675,351.386 432.675,351.719 431.5,351.5C 431.453,354.928 430.287,357.928 428,360.5C 427.333,361.833 427.333,363.167 428,364.5C 430.344,366.774 433.178,367.941 436.5,368C 435.737,368.944 434.737,369.444 433.5,369.5C 427.504,368.25 421.504,368.25 415.5,369.5C 426.326,370.167 436.992,370.833 447.5,371.5C 435.167,371.5 422.833,371.5 410.5,371.5C 407.606,359.159 403.939,347.159 399.5,335.5C 399.5,334.167 399.5,332.833 399.5,331.5C 398.167,331.5 396.833,331.5 395.5,331.5C 395.5,332.833 395.5,334.167 395.5,335.5C 394.167,335.5 392.833,335.5 391.5,335.5C 391.504,333.158 392.337,331.158 394,329.5C 393.858,320.442 394.691,311.775 396.5,303.5 Z"/></g>
<g><path style="opacity:1" fill="#f3fefd" d="M 396.5,303.5 C 398.167,303.5 399.833,303.5 401.5,303.5C 401.833,303.5 402.167,303.5 402.5,303.5C 402.5,311.167 402.5,318.833 402.5,326.5C 400.5,326.5 398.5,326.5 396.5,326.5C 396.5,318.833 396.5,311.167 396.5,303.5 Z"/></g>
<g><path style="opacity:1" fill="#21557f" d="M 399.5,335.5 C 395.434,347.364 391.768,359.364 388.5,371.5C 376.167,371.5 363.833,371.5 351.5,371.5C 362.659,370.669 373.993,370.169 385.5,370C 386.333,369.167 387.167,368.333 388,367.5C 391.135,356.925 393.969,346.258 396.5,335.5C 397.5,335.5 398.5,335.5 399.5,335.5 Z"/></g>
<g><path style="opacity:1" fill="#eff7f9" d="M 491.5,352.5 C 494.393,353.892 495.06,356.059 493.5,359C 484.322,362.503 475.156,366.003 466,369.5C 463.614,367.954 463.114,365.954 464.5,363.5C 473.508,359.614 482.508,355.948 491.5,352.5 Z"/></g>
<g><path style="opacity:1" fill="#1b517e" d="M 530.5,352.5 C 533.356,355.097 536.689,356.93 540.5,358C 549.601,358.07 558.601,358.904 567.5,360.5C 567.5,361.5 567.5,362.5 567.5,363.5C 569.308,363.491 570.975,363.991 572.5,365C 571.944,365.383 571.611,365.883 571.5,366.5C 569.188,365.68 566.854,364.847 564.5,364C 557.654,363.828 550.987,363.328 544.5,362.5C 550.176,362.666 555.843,362.499 561.5,362C 560.833,361.333 560.167,360.667 559.5,360C 554.177,359.501 548.844,359.334 543.5,359.5C 543.5,360.5 543.5,361.5 543.5,362.5C 542.624,362.369 541.957,362.702 541.5,363.5C 542.246,364.736 542.579,366.07 542.5,367.5C 541.167,367.5 539.833,367.5 538.5,367.5C 538.472,365.418 539.139,363.584 540.5,362C 539.833,361 539.167,360 538.5,359C 536.122,358.489 533.788,357.822 531.5,357C 530.62,355.644 530.286,354.144 530.5,352.5 Z"/></g>
<g><path style="opacity:1" fill="#005094" d="M 544.5,362.5 C 544.167,362.5 543.833,362.5 543.5,362.5C 543.5,361.5 543.5,360.5 543.5,359.5C 548.844,359.334 554.177,359.501 559.5,360C 560.167,360.667 560.833,361.333 561.5,362C 555.843,362.499 550.176,362.666 544.5,362.5 Z"/></g>
<g><path style="opacity:1" fill="#1a5585" d="M 270.5,329.5 C 271.76,334.648 272.76,339.981 273.5,345.5C 275.075,344.544 276.742,343.877 278.5,343.5C 278.162,346.157 278.829,348.49 280.5,350.5C 279.667,350.833 278.833,351.167 278,351.5C 276.009,350.237 274.009,348.903 272,347.5C 270.3,352.373 268.967,357.373 268,362.5C 266.601,363.227 265.101,363.727 263.5,364C 262.845,365.487 261.845,366.653 260.5,367.5C 259.167,366.167 257.833,364.833 256.5,363.5C 255.792,365.745 254.792,367.745 253.5,369.5C 253.36,359.662 252.027,349.995 249.5,340.5C 247.053,340.615 245.053,341.615 243.5,343.5C 243.624,337.942 245.958,336.942 250.5,340.5C 251.845,346.88 253.345,353.213 255,359.5C 255.037,357.026 255.87,355.026 257.5,353.5C 258.342,356.524 259.342,359.524 260.5,362.5C 262.149,361.352 263.649,360.019 265,358.5C 268.681,351.181 269.514,343.514 267.5,335.5C 269.614,334.216 270.614,332.216 270.5,329.5 Z"/></g>
<g><path style="opacity:1" fill="#f1f9f8" d="M 543.5,362.5 C 543.833,362.5 544.167,362.5 544.5,362.5C 550.987,363.328 557.654,363.828 564.5,364C 566.854,364.847 569.188,365.68 571.5,366.5C 576.416,369.43 579.416,373.764 580.5,379.5C 580.083,380.124 579.416,380.457 578.5,380.5C 569.591,378.261 560.591,376.427 551.5,375C 548.403,373.727 545.736,371.893 543.5,369.5C 543.672,368.508 543.338,367.842 542.5,367.5C 542.579,366.07 542.246,364.736 541.5,363.5C 541.957,362.702 542.624,362.369 543.5,362.5 Z"/></g>
<g><path style="opacity:1" fill="#195485" d="M 543.5,369.5 C 545.736,371.893 548.403,373.727 551.5,375C 560.591,376.427 569.591,378.261 578.5,380.5C 579.416,380.457 580.083,380.124 580.5,379.5C 581.801,380.884 581.801,382.384 580.5,384C 582.285,385.163 584.285,385.83 586.5,386C 588.155,387.444 588.822,389.278 588.5,391.5C 584.521,388.507 580.188,386.007 575.5,384C 568.101,383.156 560.767,381.989 553.5,380.5C 554.198,384.897 556.198,388.564 559.5,391.5C 554.877,390.96 552.544,388.293 552.5,383.5C 546.687,383.656 546.354,382.989 551.5,381.5C 552.722,379.091 552.055,377.258 549.5,376C 545.708,375.311 543.708,373.144 543.5,369.5 Z"/></g>
<g><path style="opacity:1" fill="#155187" d="M 239.5,351.5 C 239.335,354.85 239.502,358.183 240,361.5C 242.349,368.191 244.683,374.857 247,381.5C 248.039,380.29 249.206,379.29 250.5,378.5C 249.962,380.117 249.629,381.784 249.5,383.5C 246.478,383.572 244.312,382.238 243,379.5C 244.453,384.253 244.953,389.086 244.5,394C 243.098,395.82 241.765,397.654 240.5,399.5C 239.833,403.5 239.167,407.5 238.5,411.5C 236.197,407.722 235.863,403.722 237.5,399.5C 243.051,389.3 242.551,379.3 236,369.5C 235.39,366.173 234.89,362.839 234.5,359.5C 233.448,359.351 232.448,359.517 231.5,360C 229.733,362.544 228.066,365.044 226.5,367.5C 225.377,365.482 225.377,363.482 226.5,361.5C 223.97,358.73 222.97,355.397 223.5,351.5C 224.5,351.5 225.5,351.5 226.5,351.5C 226.756,353.792 226.423,355.959 225.5,358C 229.609,358.435 232.275,356.602 233.5,352.5C 235.396,351.534 237.396,351.201 239.5,351.5 Z"/></g>
<g><path style="opacity:1" fill="#f2f7f8" d="M 237.5,399.5 C 234.6,399.592 232.933,398.259 232.5,395.5C 230.957,390.743 229.124,386.076 227,381.5C 225.957,378.243 225.457,374.91 225.5,371.5C 226.234,370.292 226.567,368.959 226.5,367.5C 228.066,365.044 229.733,362.544 231.5,360C 232.448,359.517 233.448,359.351 234.5,359.5C 234.89,362.839 235.39,366.173 236,369.5C 242.551,379.3 243.051,389.3 237.5,399.5 Z"/></g>
<g><path style="opacity:1" fill="#f3f9fa" d="M 588.5,391.5 C 588.833,392.167 589.167,392.833 589.5,393.5C 590.614,396.177 590.614,398.844 589.5,401.5C 579.51,398.039 569.51,394.706 559.5,391.5C 556.198,388.564 554.198,384.897 553.5,380.5C 560.767,381.989 568.101,383.156 575.5,384C 580.188,386.007 584.521,388.507 588.5,391.5 Z"/></g>
<g><path style="opacity:1" fill="#1a5282" d="M 225.5,371.5 C 225.457,374.91 225.957,378.243 227,381.5C 229.124,386.076 230.957,390.743 232.5,395.5C 231.85,395.196 231.183,394.863 230.5,394.5C 229.548,396.045 229.215,397.712 229.5,399.5C 226.434,393.036 223.101,386.702 219.5,380.5C 217.412,382.428 215.912,384.761 215,387.5C 214.365,392.947 214.865,398.28 216.5,403.5C 215.442,402.4 214.608,401.066 214,399.5C 213.333,394.167 213.333,388.833 214,383.5C 214.632,381.469 215.799,379.802 217.5,378.5C 219.326,378.92 221.326,378.92 223.5,378.5C 223.338,380.527 223.505,382.527 224,384.5C 224.175,379.981 224.675,375.647 225.5,371.5 Z"/></g>
<g><path style="opacity:1" fill="#f1f9fa" d="M 229.5,399.5 C 232.735,407.254 232.068,414.587 227.5,421.5C 223.74,415.44 220.073,409.44 216.5,403.5C 214.865,398.28 214.365,392.947 215,387.5C 215.912,384.761 217.412,382.428 219.5,380.5C 223.101,386.702 226.434,393.036 229.5,399.5 Z"/></g>
<g><path style="opacity:1" fill="#f4fafa" d="M 591.5,408.5 C 594.573,410.569 596.906,413.236 598.5,416.5C 599.01,419.388 598.344,421.721 596.5,423.5C 596.167,423.5 595.833,423.5 595.5,423.5C 588.474,419.871 581.14,416.704 573.5,414C 567.494,410.825 565.161,405.992 566.5,399.5C 575.068,401.911 583.402,404.911 591.5,408.5 Z"/></g>
<g><path style="opacity:1" fill="#f1f9fa" d="M 323.5,416.5 C 316.518,418.493 309.518,420.493 302.5,422.5C 298.986,420.579 298.319,418.245 300.5,415.5C 319.791,410.349 338.957,404.682 358,398.5C 360.805,399.768 361.639,401.768 360.5,404.5C 348.112,408.673 335.779,412.673 323.5,416.5 Z"/></g>
<g><path style="opacity:1" fill="#f1f9f9" d="M 438.5,398.5 C 458.89,404.347 479.224,410.347 499.5,416.5C 499.61,419.059 498.944,421.392 497.5,423.5C 477.739,417.357 458.072,411.024 438.5,404.5C 437.481,402.54 437.481,400.54 438.5,398.5 Z"/></g>
<g><path style="opacity:1" fill="#185485" d="M 559.5,391.5 C 569.51,394.706 579.51,398.039 589.5,401.5C 590.614,398.844 590.614,396.177 589.5,393.5C 590.765,394.514 591.431,396.014 591.5,398C 591.009,400.206 591.009,402.206 591.5,404C 590.833,404.333 590.167,404.667 589.5,405C 590.823,405.816 591.489,406.983 591.5,408.5C 583.402,404.911 575.068,401.911 566.5,399.5C 565.161,405.992 567.494,410.825 573.5,414C 581.14,416.704 588.474,419.871 595.5,423.5C 594.178,423.67 593.011,423.337 592,422.5C 591.209,423.745 590.709,425.078 590.5,426.5C 585.234,424.8 580.068,422.8 575,420.5C 574.503,422.81 574.337,425.143 574.5,427.5C 573.85,427.804 573.183,428.137 572.5,428.5C 570.712,423.811 571.379,419.644 574.5,416C 570.542,414.89 567.208,412.723 564.5,409.5C 562.525,405.462 560.858,401.296 559.5,397C 559.755,395.674 560.422,394.674 561.5,394C 560.244,393.583 559.577,392.75 559.5,391.5 Z"/></g>
<g><path style="opacity:1" fill="#f3f9f9" d="M 223.5,440.5 C 222.518,441.141 221.518,441.807 220.5,442.5C 220.167,442.167 219.833,441.833 219.5,441.5C 214.836,435.509 210.67,429.176 207,422.5C 205.756,419.436 204.923,416.269 204.5,413C 205.074,409.688 206.074,406.522 207.5,403.5C 208.575,402.438 209.575,402.438 210.5,403.5C 214.8,411.628 219.3,419.628 224,427.5C 224.629,431.871 224.463,436.204 223.5,440.5 Z"/></g>
<g><path style="opacity:1" fill="#1d527f" d="M 300.5,415.5 C 298.319,418.245 298.986,420.579 302.5,422.5C 309.518,420.493 316.518,418.493 323.5,416.5C 324.239,416.369 324.906,416.536 325.5,417C 324.167,417.667 322.833,418.333 321.5,419C 315.553,420.813 309.553,422.313 303.5,423.5C 303.657,424.873 303.49,426.207 303,427.5C 297.56,424.957 295.726,420.957 297.5,415.5C 298.5,415.5 299.5,415.5 300.5,415.5 Z"/></g>
<g><path style="opacity:1" fill="#9dc4e8" d="M 598.5,416.5 C 599.473,418.948 599.806,421.615 599.5,424.5C 598.209,424.737 597.209,424.404 596.5,423.5C 598.344,421.721 599.01,419.388 598.5,416.5 Z"/></g>
<g><path style="opacity:1" fill="#165184" d="M 207.5,403.5 C 206.074,406.522 205.074,409.688 204.5,413C 204.923,416.269 205.756,419.436 207,422.5C 210.67,429.176 214.836,435.509 219.5,441.5C 219.833,441.833 220.167,442.167 220.5,442.5C 221.518,441.807 222.518,441.141 223.5,440.5C 223.762,441.978 223.429,443.311 222.5,444.5C 221.264,443.754 219.93,443.421 218.5,443.5C 218.5,445.5 218.5,447.5 218.5,449.5C 212.606,441.396 206.939,433.063 201.5,424.5C 197.988,428.886 196.821,433.886 198,439.5C 199.139,442.583 200.472,445.583 202,448.5C 207.078,453.072 211.578,458.072 215.5,463.5C 212.572,462.409 210.406,460.409 209,457.5C 208.667,458.167 208.333,458.833 208,459.5C 206.866,454.203 206.032,454.203 205.5,459.5C 202.407,456.843 199.573,453.843 197,450.5C 196.517,449.552 196.351,448.552 196.5,447.5C 194.163,439.655 194.163,431.821 196.5,424C 194.92,420.989 193.253,418.156 191.5,415.5C 192.5,415.5 193.5,415.5 194.5,415.5C 194.418,409.857 193.418,404.524 191.5,399.5C 192.5,399.5 193.5,399.5 194.5,399.5C 193.964,402.665 194.797,405.331 197,407.5C 197.499,412.489 197.666,417.489 197.5,422.5C 199.288,422.785 200.955,422.452 202.5,421.5C 203.286,416.219 203.786,410.885 204,405.5C 204.333,404.5 204.667,403.5 205,402.5C 205.671,403.252 206.504,403.586 207.5,403.5 Z"/></g>
<g><path style="opacity:1" fill="#f5f9f9" d="M 590.5,426.5 C 594.893,428.782 599.059,431.448 603,434.5C 606.343,439.097 607.177,444.097 605.5,449.5C 604.735,448.388 603.735,447.721 602.5,447.5C 596.14,442.65 589.14,438.817 581.5,436C 579.63,433.96 577.63,432.127 575.5,430.5C 575.737,429.209 575.404,428.209 574.5,427.5C 574.337,425.143 574.503,422.81 575,420.5C 580.068,422.8 585.234,424.8 590.5,426.5 Z"/></g>
<g><path style="opacity:1" fill="#115181" d="M 352.5,458.5 C 355.602,453.554 358.936,448.721 362.5,444C 360.086,438.28 357.419,438.113 354.5,443.5C 354.361,440.412 353.361,437.745 351.5,435.5C 353.844,434.514 356.011,433.181 358,431.5C 358.833,431.667 359.667,431.833 360.5,432C 357.085,436.335 358.085,438.502 363.5,438.5C 363.227,436.042 364.227,434.375 366.5,433.5C 367.955,436.293 367.455,438.626 365,440.5C 364.503,442.81 364.337,445.143 364.5,447.5C 360.236,449.617 357.069,452.95 355,457.5C 354.329,458.252 353.496,458.586 352.5,458.5 Z"/></g>
<g><path style="opacity:1" fill="#fbfdfd" d="M 416.5,484.5 C 434.326,485.497 452.326,485.83 470.5,485.5C 470.5,491.5 470.5,497.5 470.5,503.5C 462.893,504.899 455.56,506.899 448.5,509.5C 445.061,509.788 441.728,510.454 438.5,511.5C 432.144,512.839 425.811,514.339 419.5,516C 418.342,517.009 417.675,518.342 417.5,520C 417.976,542.345 418.976,564.511 420.5,586.5C 420.071,597.245 420.571,607.912 422,618.5C 422.983,622.389 425.483,624.556 429.5,625C 442.768,625.356 454.934,621.856 466,614.5C 466.315,613.092 465.982,611.759 465,610.5C 461.833,606.667 458.667,602.833 455.5,599C 477.023,592.438 497.356,583.272 516.5,571.5C 516.734,582.427 514.901,593.093 511,603.5C 506.558,618.156 500.558,632.156 493,645.5C 488.99,640.659 484.823,635.992 480.5,631.5C 473.768,635.857 467.102,640.191 460.5,644.5C 440.049,654.775 419.715,665.441 399.5,676.5C 394.953,674.396 390.62,672.063 386.5,669.5C 372.512,661.504 358.179,654.004 343.5,647C 335.167,641.833 326.833,636.667 318.5,631.5C 314.384,635.277 311.05,639.61 308.5,644.5C 307.577,645.303 306.577,645.47 305.5,645C 304.391,643.124 303.391,641.291 302.5,639.5C 297.089,627.58 292.089,615.58 287.5,603.5C 284.602,593.011 282.602,582.345 281.5,571.5C 293.316,577.764 305.316,583.931 317.5,590C 325.608,593.536 333.941,596.369 342.5,598.5C 340.439,602.922 337.606,606.922 334,610.5C 332.632,611.993 332.465,613.493 333.5,615C 343.813,621.746 355.147,625.079 367.5,625C 369.723,624.434 371.723,623.6 373.5,622.5C 375.708,621.106 377.208,619.106 378,616.5C 379.624,583.178 380.79,549.845 381.5,516.5C 380.5,516.5 379.5,516.5 378.5,516.5C 369.491,514.297 360.491,511.963 351.5,509.5C 344.223,507.748 336.89,505.748 329.5,503.5C 328.504,497.537 328.171,491.537 328.5,485.5C 346.833,485.5 365.167,485.5 383.5,485.5C 383.5,473.833 383.5,462.167 383.5,450.5C 383.5,449.5 383.5,448.5 383.5,447.5C 391.636,433.393 401.47,432.06 413,443.5C 414,445.5 415,447.5 416,449.5C 416.5,461.162 416.667,472.829 416.5,484.5 Z"/></g>
<g><path style="opacity:1" fill="#eef8fb" d="M 447.5,447.5 C 451.833,453.5 456.167,459.5 460.5,465.5C 462.535,467.73 464.201,470.23 465.5,473C 464.254,474.953 462.587,475.953 460.5,476C 451.783,464.992 443.616,453.825 436,442.5C 437.242,441.128 438.742,440.128 440.5,439.5C 442.856,442.186 445.189,444.853 447.5,447.5 Z"/></g>
<g><path style="opacity:1" fill="#eff8f9" d="M 218.5,449.5 C 219.09,454.64 218.09,459.307 215.5,463.5C 211.578,458.072 207.078,453.072 202,448.5C 200.472,445.583 199.139,442.583 198,439.5C 196.821,433.886 197.988,428.886 201.5,424.5C 206.939,433.063 212.606,441.396 218.5,449.5 Z"/></g>
<g><path style="opacity:1" fill="#ebf6f9" d="M 352.5,458.5 C 347.697,464.146 343.031,469.979 338.5,476C 337.833,476.667 337.167,476.667 336.5,476C 334.939,475.059 333.605,473.892 332.5,472.5C 339.858,462.815 347.191,453.148 354.5,443.5C 357.419,438.113 360.086,438.28 362.5,444C 358.936,448.721 355.602,453.554 352.5,458.5 Z"/></g>
<g><path style="opacity:1" fill="#f0f8f9" d="M 591.5,446.5 C 593.849,448.341 596.515,449.674 599.5,450.5C 603.137,453.306 606.304,456.639 609,460.5C 612.589,474.368 610.089,476.535 601.5,467C 595.388,463.221 589.555,459.055 584,454.5C 581.369,450.911 580.203,446.911 580.5,442.5C 584.264,443.548 587.931,444.881 591.5,446.5 Z"/></g>
<g><path style="opacity:1" fill="#f3f9f8" d="M 196.5,447.5 C 196.351,448.552 196.517,449.552 197,450.5C 199.573,453.843 202.407,456.843 205.5,459.5C 206.833,460.833 208.167,462.167 209.5,463.5C 214.46,468.883 216.293,475.217 215,482.5C 214.581,483.672 213.915,484.672 213,485.5C 208.473,480.061 203.473,475.061 198,470.5C 196.476,468.102 194.976,465.769 193.5,463.5C 192.473,459.554 192.306,455.554 193,451.5C 193.498,449.456 194.665,448.122 196.5,447.5 Z"/></g>
<g><path style="opacity:1" fill="#0c5086" d="M 428.5,429.5 C 430.672,430.128 432.338,431.462 433.5,433.5C 433.081,434.672 432.415,435.672 431.5,436.5C 431.709,437.086 432.043,437.586 432.5,438C 438.723,439.607 441.056,437.441 439.5,431.5C 441.167,431.5 442.833,431.5 444.5,431.5C 444.277,433.342 443.943,435.175 443.5,437C 443.495,439.163 444.495,440.663 446.5,441.5C 447.466,443.396 447.799,445.396 447.5,447.5C 445.189,444.853 442.856,442.186 440.5,439.5C 438.742,440.128 437.242,441.128 436,442.5C 443.616,453.825 451.783,464.992 460.5,476C 462.587,475.953 464.254,474.953 465.5,473C 464.201,470.23 462.535,467.73 460.5,465.5C 461.397,464.402 462.23,464.402 463,465.5C 463.388,464.572 464.055,463.905 465,463.5C 466.231,464.834 467.897,466.501 470,468.5C 470.273,470.101 470.773,471.601 471.5,473C 467.389,474.881 466.056,477.881 467.5,482C 468.833,482.667 470.167,482.667 471.5,482C 472.617,480.108 474.284,479.275 476.5,479.5C 476.5,478.5 476.5,477.5 476.5,476.5C 477.5,476.5 478.5,476.5 479.5,476.5C 479.5,482.833 479.5,489.167 479.5,495.5C 478.5,495.5 477.5,495.5 476.5,495.5C 476.21,484.035 474.876,484.368 472.5,496.5C 473.967,499.862 473.634,503.029 471.5,506C 463.9,508.694 456.233,509.861 448.5,509.5C 455.56,506.899 462.893,504.899 470.5,503.5C 471.49,497.355 471.823,491.022 471.5,484.5C 453.167,484.5 434.833,484.5 416.5,484.5C 416.667,472.829 416.5,461.162 416,449.5C 415,447.5 414,445.5 413,443.5C 401.47,432.06 391.636,433.393 383.5,447.5C 383.201,445.396 383.534,443.396 384.5,441.5C 386.702,439.589 388.369,437.255 389.5,434.5C 398.29,433.83 406.957,432.83 415.5,431.5C 415.281,430.325 415.614,429.325 416.5,428.5C 419.238,430.502 422.238,431.335 425.5,431C 417.452,424.985 409.452,418.985 401.5,413C 400.167,412.333 398.833,412.333 397.5,413C 393.28,416.672 388.614,419.505 383.5,421.5C 388.767,417.856 394.101,414.189 399.5,410.5C 409.366,416.595 419.033,422.928 428.5,429.5 Z"/></g>
<g><path style="opacity:1" fill="#01508e" d="M 435.5,452.5 C 437.5,452.833 439.5,453.167 441.5,453.5C 441.955,458.082 444.121,460.749 448,461.5C 449.044,463.715 449.71,466.048 450,468.5C 454.185,470.835 456.018,474.501 455.5,479.5C 454.167,479.5 452.833,479.5 451.5,479.5C 449.149,470.574 447.816,470.574 447.5,479.5C 441.167,479.5 434.833,479.5 428.5,479.5C 428.5,474.167 428.5,468.833 428.5,463.5C 427.5,463.5 426.5,463.5 425.5,463.5C 425.334,468.844 425.501,474.177 426,479.5C 426.645,480.646 427.478,481.646 428.5,482.5C 425.087,483.823 421.753,483.656 418.5,482C 419.167,481.333 419.833,480.667 420.5,480C 419.527,474.593 419.193,469.093 419.5,463.5C 420.833,463.5 422.167,463.5 423.5,463.5C 423.784,460.746 424.451,458.08 425.5,455.5C 430.476,461.034 433.809,460.034 435.5,452.5 Z"/></g>
<g><path style="opacity:1" fill="#125186" d="M 575.5,430.5 C 577.63,432.127 579.63,433.96 581.5,436C 589.14,438.817 596.14,442.65 602.5,447.5C 599.254,447.398 596.42,446.398 594,444.5C 592.624,444.684 591.791,445.351 591.5,446.5C 587.931,444.881 584.264,443.548 580.5,442.5C 580.203,446.911 581.369,450.911 584,454.5C 589.555,459.055 595.388,463.221 601.5,467C 610.089,476.535 612.589,474.368 609,460.5C 606.304,456.639 603.137,453.306 599.5,450.5C 601.901,451.049 604.235,451.882 606.5,453C 606.167,453.333 605.833,453.667 605.5,454C 607.552,455.812 609.885,457.145 612.5,458C 613.126,458.75 613.626,459.584 614,460.5C 613.171,466.197 611.838,471.864 610,477.5C 609.346,476.304 608.846,476.304 608.5,477.5C 609.348,480.952 611.182,483.619 614,485.5C 617.144,481.492 617.311,477.325 614.5,473C 616.217,471.441 618.217,470.608 620.5,470.5C 621.833,476.5 621.833,482.5 620.5,488.5C 618.066,487.705 615.899,487.038 614,486.5C 614.33,492.333 612.997,497.666 610,502.5C 607.157,499.989 604.657,497.156 602.5,494C 601.365,493.251 600.365,493.417 599.5,494.5C 600.127,495.417 600.461,496.417 600.5,497.5C 595.558,493.897 590.892,489.897 586.5,485.5C 585.149,487.444 584.482,489.611 584.5,492C 585.028,494.881 585.694,497.715 586.5,500.5C 584.589,500.426 583.422,499.426 583,497.5C 582.433,494.832 581.933,492.166 581.5,489.5C 579.089,489.137 577.589,490.137 577,492.5C 574.885,488.258 575.385,484.258 578.5,480.5C 581.447,479.679 584.447,479.179 587.5,479C 586.748,478.329 586.414,477.496 586.5,476.5C 585.292,475.766 583.959,475.433 582.5,475.5C 582.176,471.445 582.509,467.445 583.5,463.5C 584.5,463 585.5,462.5 586.5,462C 584.362,458.28 581.862,454.78 579,451.5C 578.457,448.132 578.624,444.799 579.5,441.5C 580.978,441.762 582.311,441.429 583.5,440.5C 581.117,438.414 578.617,436.414 576,434.5C 575.51,433.207 575.343,431.873 575.5,430.5 Z"/></g>
<g><path style="opacity:1" fill="#175385" d="M 383.5,447.5 C 383.5,448.5 383.5,449.5 383.5,450.5C 382.505,461.654 382.172,472.988 382.5,484.5C 364.326,484.17 346.326,484.503 328.5,485.5C 328.171,491.537 328.504,497.537 329.5,503.5C 336.89,505.748 344.223,507.748 351.5,509.5C 345.365,509.621 339.365,508.788 333.5,507C 330.78,506.203 328.28,505.037 326,503.5C 323.639,495.236 324.139,487.236 327.5,479.5C 326.167,479.5 324.833,479.5 323.5,479.5C 323.755,476.01 322.422,473.343 319.5,471.5C 322.422,469.657 323.755,466.99 323.5,463.5C 325.167,463.5 326.833,463.5 328.5,463.5C 326.789,465.906 325.455,468.573 324.5,471.5C 325.455,474.427 326.789,477.094 328.5,479.5C 330.59,479.45 331.923,480.45 332.5,482.5C 347.489,483.666 362.489,483.833 377.5,483C 378.665,477.244 379.332,471.077 379.5,464.5C 379.477,459.118 379.144,453.784 378.5,448.5C 380.045,447.548 381.712,447.215 383.5,447.5 Z"/></g>
<g><path style="opacity:1" fill="#80afd4" d="M 383.5,450.5 C 383.5,462.167 383.5,473.833 383.5,485.5C 365.167,485.5 346.833,485.5 328.5,485.5C 346.326,484.503 364.326,484.17 382.5,484.5C 382.172,472.988 382.505,461.654 383.5,450.5 Z"/></g>
<g><path style="opacity:1" fill="#80aacb" d="M 416.5,484.5 C 434.833,484.5 453.167,484.5 471.5,484.5C 471.823,491.022 471.49,497.355 470.5,503.5C 470.5,497.5 470.5,491.5 470.5,485.5C 452.326,485.83 434.326,485.497 416.5,484.5 Z"/></g>
<g><path style="opacity:1" fill="#f1f9fa" d="M 586.5,476.5 C 585.406,474.135 584.739,471.635 584.5,469C 584.396,466.855 585.063,465.021 586.5,463.5C 595.761,468.594 603.261,475.594 609,484.5C 610.663,488.46 610.83,492.46 609.5,496.5C 608.998,497.521 608.332,497.688 607.5,497C 599.915,490.58 592.915,483.747 586.5,476.5 Z"/></g>
<g><path style="opacity:1" fill="#175186" d="M 193.5,463.5 C 194.976,465.769 196.476,468.102 198,470.5C 203.473,475.061 208.473,480.061 213,485.5C 213.915,484.672 214.581,483.672 215,482.5C 216.293,475.217 214.46,468.883 209.5,463.5C 210.675,463.281 211.675,463.614 212.5,464.5C 213.124,466.754 214.457,468.421 216.5,469.5C 217.662,474.467 217.829,479.467 217,484.5C 214.6,485.398 213.1,487.064 212.5,489.5C 213.269,492.115 213.603,494.781 213.5,497.5C 211.2,492.924 208.367,488.59 205,484.5C 200,480.833 195.667,476.5 192,471.5C 190.207,476.036 190.04,480.702 191.5,485.5C 188.443,485.787 186.777,484.121 186.5,480.5C 188.11,480.079 189.11,477.912 189.5,474C 189.355,473.228 189.022,472.561 188.5,472C 190.725,471.124 192.725,469.957 194.5,468.5C 193.5,467.167 192.5,465.833 191.5,464.5C 191.957,463.702 192.624,463.369 193.5,463.5 Z"/></g>
<g><path style="opacity:1" fill="#f2f9f9" d="M 213.5,497.5 C 213.665,500.518 213.498,503.518 213,506.5C 212.692,507.308 212.192,507.975 211.5,508.5C 206.279,503.624 201.113,498.624 196,493.5C 194.223,490.941 192.723,488.274 191.5,485.5C 190.04,480.702 190.207,476.036 192,471.5C 195.667,476.5 200,480.833 205,484.5C 208.367,488.59 211.2,492.924 213.5,497.5 Z"/></g>
<g><path style="opacity:1" fill="#165386" d="M 587.5,502.5 C 593.436,508.938 599.603,515.271 606,521.5C 606.383,520.944 606.883,520.611 607.5,520.5C 607.665,523.518 607.498,526.518 607,529.5C 606.292,530.381 605.458,531.047 604.5,531.5C 603.872,528.91 602.705,526.577 601,524.5C 595.667,519.167 590.333,513.833 585,508.5C 581.668,514.576 582.002,520.576 586,526.5C 591.983,532.823 597.65,539.489 603,546.5C 604.904,543.077 605.737,539.41 605.5,535.5C 606.633,537.055 607.299,538.889 607.5,541C 606.167,546.333 606.167,551.667 607.5,557C 607.167,557.833 606.833,558.667 606.5,559.5C 605.833,556.5 605.167,553.5 604.5,550.5C 603.914,550.709 603.414,551.043 603,551.5C 602.667,555.833 602.333,560.167 602,564.5C 600.69,567.473 598.69,569.807 596,571.5C 596.038,578.403 594.871,585.07 592.5,591.5C 591.669,598.476 591.169,605.476 591,612.5C 589.623,605.924 589.123,599.257 589.5,592.5C 588.5,592.5 587.5,592.5 586.5,592.5C 586.5,597.5 586.5,602.5 586.5,607.5C 585.5,607.5 584.5,607.5 583.5,607.5C 583.93,600.99 583.097,594.656 581,588.5C 577.667,583.167 574.333,577.833 571,572.5C 569.748,574.001 568.748,575.668 568,577.5C 567.352,582.204 567.519,586.871 568.5,591.5C 567.5,591.5 566.5,591.5 565.5,591.5C 565.46,583.813 565.793,576.146 566.5,568.5C 568.288,568.785 569.955,568.452 571.5,567.5C 571.945,564.947 571.945,562.28 571.5,559.5C 569.833,559.5 568.167,559.5 566.5,559.5C 567.227,563.224 565.894,565.891 562.5,567.5C 561.926,570.177 561.259,572.843 560.5,575.5C 560.167,574 559.833,572.5 559.5,571C 560.857,567.362 561.524,563.529 561.5,559.5C 565.377,558.473 567.377,555.806 567.5,551.5C 571.287,552.186 574.454,551.186 577,548.5C 577.667,547.833 577.667,547.167 577,546.5C 575.867,548.211 574.367,548.711 572.5,548C 572.966,546.701 572.966,545.201 572.5,543.5C 574.124,543.36 575.29,544.027 576,545.5C 576.333,545.167 576.667,544.833 577,544.5C 577.17,538.804 577.67,533.138 578.5,527.5C 580.214,526.391 580.881,527.058 580.5,529.5C 581.791,529.263 582.791,529.596 583.5,530.5C 584.497,530.53 585.164,530.03 585.5,529C 582.171,522.596 580.671,515.763 581,508.5C 577.015,506.918 576.682,504.918 580,502.5C 581.263,505.468 583.263,506.468 586,505.5C 586.333,506.167 586.667,506.833 587,507.5C 587.494,505.866 587.66,504.199 587.5,502.5 Z"/></g>
<g><path style="opacity:1" fill="#f1f9f9" d="M 190.5,496.5 C 197.391,502.211 204.225,508.211 211,514.5C 212.08,516.996 213.414,519.33 215,521.5C 215.936,524.792 215.436,527.792 213.5,530.5C 205.908,526.399 199.408,521.066 194,514.5C 190.008,509.03 188.841,503.03 190.5,496.5 Z"/></g>
<g><path style="opacity:1" fill="#f1f8f7" d="M 600.5,497.5 C 603.159,500.809 605.326,504.476 607,508.5C 607.499,512.486 607.666,516.486 607.5,520.5C 606.883,520.611 606.383,520.944 606,521.5C 599.603,515.271 593.436,508.938 587.5,502.5C 587.672,501.508 587.338,500.842 586.5,500.5C 585.694,497.715 585.028,494.881 584.5,492C 584.482,489.611 585.149,487.444 586.5,485.5C 590.892,489.897 595.558,493.897 600.5,497.5 Z"/></g>
<g><path style="opacity:1" fill="#f2f9f8" d="M 604.5,531.5 C 605.234,532.708 605.567,534.041 605.5,535.5C 605.737,539.41 604.904,543.077 603,546.5C 597.65,539.489 591.983,532.823 586,526.5C 582.002,520.576 581.668,514.576 585,508.5C 590.333,513.833 595.667,519.167 601,524.5C 602.705,526.577 603.872,528.91 604.5,531.5 Z"/></g>
<g><path style="opacity:1" fill="#f5faf8" d="M 216.5,552.5 C 211.693,549.595 206.693,546.928 201.5,544.5C 192.761,539.353 189.095,531.687 190.5,521.5C 193.815,521.972 196.149,523.805 197.5,527C 204.282,531.448 210.782,536.281 217,541.5C 219.408,545.142 220.075,549.142 219,553.5C 218.329,552.748 217.496,552.414 216.5,552.5 Z"/></g>
<g><path style="opacity:1" fill="#f3faf9" d="M 583.5,530.5 C 589.146,535.988 594.313,541.988 599,548.5C 600.506,553.746 600.839,559.079 600,564.5C 599.385,566.116 598.385,567.449 597,568.5C 592.391,560.893 587.391,553.559 582,546.5C 580.543,542.259 580.209,537.926 581,533.5C 581.377,532.058 582.21,531.058 583.5,530.5 Z"/></g>
<g><path style="opacity:1" fill="#2e5e83" d="M 194.5,546.5 C 194.042,551.551 195.042,556.217 197.5,560.5C 196.85,560.196 196.183,559.863 195.5,559.5C 193.08,555.447 191.747,551.113 191.5,546.5C 192.5,546.5 193.5,546.5 194.5,546.5 Z"/></g>
<g><path style="opacity:1" fill="#275a87" d="M 438.5,511.5 C 436.88,515.808 433.88,517.141 429.5,515.5C 426.673,516.932 423.673,517.599 420.5,517.5C 420.096,540.482 420.096,563.482 420.5,586.5C 418.976,564.511 417.976,542.345 417.5,520C 417.675,518.342 418.342,517.009 419.5,516C 425.811,514.339 432.144,512.839 438.5,511.5 Z"/></g>
<g><path style="opacity:1" fill="#f3f9fa" d="M 195.5,545.5 C 196.29,546.794 197.29,547.961 198.5,549C 206.041,553.27 213.707,557.27 221.5,561C 225.548,564.6 227.215,569.1 226.5,574.5C 225.5,574.5 224.5,574.5 223.5,574.5C 223.5,573.833 223.167,573.5 222.5,573.5C 214.962,570.733 207.629,567.4 200.5,563.5C 199.833,562.167 198.833,561.167 197.5,560.5C 195.042,556.217 194.042,551.551 194.5,546.5C 194.5,545.833 194.833,545.5 195.5,545.5 Z"/></g>
<g><path style="opacity:1" fill="#1c5382" d="M 201.5,544.5 C 206.693,546.928 211.693,549.595 216.5,552.5C 214.712,552.215 213.045,552.548 211.5,553.5C 213.404,554.409 215.238,555.409 217,556.5C 218.162,555.813 219.328,555.647 220.5,556C 221.604,558.772 223.437,560.938 226,562.5C 227.477,566.696 228.311,571.029 228.5,575.5C 226.585,575.784 224.919,575.451 223.5,574.5C 224.5,574.5 225.5,574.5 226.5,574.5C 227.215,569.1 225.548,564.6 221.5,561C 213.707,557.27 206.041,553.27 198.5,549C 197.29,547.961 196.29,546.794 195.5,545.5C 197.696,544.757 199.696,544.424 201.5,544.5 Z"/></g>
<g><path style="opacity:1" fill="#f5faf9" d="M 577.5,551.5 C 583.357,558.164 588.524,565.497 593,573.5C 593.667,577.5 593.667,581.5 593,585.5C 592.482,588.023 591.148,590.023 589,591.5C 583.825,583.152 579.158,574.485 575,565.5C 573.806,560.369 574.639,555.702 577.5,551.5 Z"/></g>
<g><path style="opacity:1" fill="#f4f9fa" d="M 583.5,607.5 C 582.639,610.04 580.972,612.04 578.5,613.5C 575.232,607.297 572.232,600.964 569.5,594.5C 569.443,593.391 569.11,592.391 568.5,591.5C 567.519,586.871 567.352,582.204 568,577.5C 568.748,575.668 569.748,574.001 571,572.5C 574.333,577.833 577.667,583.167 581,588.5C 583.097,594.656 583.93,600.99 583.5,607.5 Z"/></g>
<g><path style="opacity:1" fill="#1b5382" d="M 200.5,563.5 C 207.629,567.4 214.962,570.733 222.5,573.5C 220.076,573.192 217.743,573.526 215.5,574.5C 219.463,576.88 223.797,577.88 228.5,577.5C 228.351,578.552 228.517,579.552 229,580.5C 231.092,582.755 233.592,584.422 236.5,585.5C 237.04,586.748 237.707,587.915 238.5,589C 235.787,591.667 236.12,594 239.5,596C 237.381,596.098 235.714,596.931 234.5,598.5C 236.882,600.071 239.549,600.904 242.5,601C 243.729,602.529 245.229,603.696 247,604.5C 247.498,607.817 247.665,611.15 247.5,614.5C 243.154,614.334 238.821,614.501 234.5,615C 238.985,616.274 243.652,616.941 248.5,617C 250.324,617.66 251.657,618.827 252.5,620.5C 245.628,618.765 238.628,617.598 231.5,617C 227.837,616.428 224.503,615.262 221.5,613.5C 221.5,612.5 221.5,611.5 221.5,610.5C 219.173,610.335 217.007,609.669 215,608.5C 213.667,610.5 212.333,612.5 211,614.5C 209.989,613.663 208.822,613.33 207.5,613.5C 207.393,611.097 208.393,609.264 210.5,608C 209.747,606.513 208.914,606.346 208,607.5C 207.833,606.667 207.667,605.833 207.5,605C 207.888,601.582 207.888,598.249 207.5,595C 208.066,594.005 208.733,593.172 209.5,592.5C 210.091,591.849 210.757,591.182 211.5,590.5C 209.921,589.333 208.588,588 207.5,586.5C 216.431,590.699 225.764,593.699 235.5,595.5C 235.429,589.86 233.096,585.36 228.5,582C 219.45,578.974 210.783,575.14 202.5,570.5C 200.497,576.808 202.164,581.808 207.5,585.5C 206.178,585.67 205.011,585.337 204,584.5C 203.667,585.167 203.333,585.833 203,586.5C 201.22,582.005 200.054,577.338 199.5,572.5C 195.777,571.135 195.777,569.468 199.5,567.5C 200.429,566.311 200.762,564.978 200.5,563.5 Z"/></g>
<g><path style="opacity:1" fill="#f4fafa" d="M 209.5,592.5 C 220.113,596.325 230.78,600.159 241.5,604C 245.19,606.169 246.857,609.336 246.5,613.5C 235.973,613.533 225.973,611.367 216.5,607C 211.605,603.377 209.272,598.544 209.5,592.5 Z"/></g>
<g><path style="opacity:1" fill="#f1f9f9" d="M 207.5,586.5 C 207.5,586.167 207.5,585.833 207.5,585.5C 202.164,581.808 200.497,576.808 202.5,570.5C 210.783,575.14 219.45,578.974 228.5,582C 233.096,585.36 235.429,589.86 235.5,595.5C 225.764,593.699 216.431,590.699 207.5,586.5 Z"/></g>
<g><path style="opacity:1" fill="#236080" d="M 557.5,603.5 C 557.342,606.902 557.676,610.236 558.5,613.5C 556.887,615.461 555.887,617.794 555.5,620.5C 554.167,617.833 552.833,615.167 551.5,612.5C 552.942,611.18 553.608,609.514 553.5,607.5C 554.5,607.5 555.5,607.5 556.5,607.5C 556.232,605.901 556.566,604.568 557.5,603.5 Z"/></g>
<g><path style="opacity:1" fill="#1b5181" d="M 569.5,594.5 C 572.232,600.964 575.232,607.297 578.5,613.5C 580.972,612.04 582.639,610.04 583.5,607.5C 583.826,613.826 580.826,616.159 574.5,614.5C 574.216,617.777 574.549,620.943 575.5,624C 572.62,627.178 570.62,630.844 569.5,635C 566.845,636.115 564.179,636.782 561.5,637C 561.234,633.121 561.234,628.621 561.5,623.5C 563.201,626.926 564.534,630.593 565.5,634.5C 570.534,630.414 572.867,625.081 572.5,618.5C 571.095,609.363 567.762,601.029 562.5,593.5C 561.712,594.77 560.712,595.77 559.5,596.5C 560.821,594.186 560.821,591.853 559.5,589.5C 559.833,588.833 560.167,588.167 560.5,587.5C 561.429,588.689 561.762,590.022 561.5,591.5C 562.552,591.351 563.552,591.517 564.5,592C 564.988,594.176 565.988,596.009 567.5,597.5C 568.176,596.398 568.842,595.398 569.5,594.5 Z"/></g>
<g><path style="opacity:1" fill="#f4fafa" d="M 561.5,623.5 C 560.508,620.177 559.508,616.844 558.5,613.5C 557.676,610.236 557.342,606.902 557.5,603.5C 557.394,600.921 558.061,598.588 559.5,596.5C 560.712,595.77 561.712,594.77 562.5,593.5C 567.762,601.029 571.095,609.363 572.5,618.5C 572.867,625.081 570.534,630.414 565.5,634.5C 564.534,630.593 563.201,626.926 561.5,623.5 Z"/></g>
<g><path style="opacity:1" fill="#255782" d="M 378.5,516.5 C 379.5,516.5 380.5,516.5 381.5,516.5C 380.79,549.845 379.624,583.178 378,616.5C 377.208,619.106 375.708,621.106 373.5,622.5C 373.149,619.856 374.316,617.522 377,615.5C 378.542,582.497 379.042,549.497 378.5,516.5 Z"/></g>
<g><path style="opacity:1" fill="#255782" d="M 287.5,603.5 C 292.089,615.58 297.089,627.58 302.5,639.5C 301.5,639.5 300.5,639.5 299.5,639.5C 296.524,630.642 293.024,621.976 289,613.5C 288.39,610.173 287.89,606.839 287.5,603.5 Z"/></g>
<g><path style="opacity:1" fill="#f1f8f9" d="M 221.5,613.5 C 224.503,615.262 227.837,616.428 231.5,617C 238.628,617.598 245.628,618.765 252.5,620.5C 256.298,623.091 258.298,626.757 258.5,631.5C 250.083,631.906 241.749,631.406 233.5,630C 227.508,628.097 223.341,624.264 221,618.5C 220.22,616.613 220.387,614.946 221.5,613.5 Z"/></g>
<g><path style="opacity:1" fill="#225f88" d="M 549.5,613.5 C 545.966,618.914 544.633,624.914 545.5,631.5C 544.074,629.321 543.408,626.821 543.5,624C 544.335,620.496 545.168,616.996 546,613.5C 547.393,610.875 548.559,610.875 549.5,613.5 Z"/></g>
<g><path style="opacity:1" fill="#f5faf8" d="M 551.5,612.5 C 552.833,615.167 554.167,617.833 555.5,620.5C 560.827,630.461 560.827,640.461 555.5,650.5C 553.929,652.415 551.929,653.415 549.5,653.5C 549.5,651.833 549.5,650.167 549.5,648.5C 548.387,643.324 547.054,638.324 545.5,633.5C 545.5,632.833 545.5,632.167 545.5,631.5C 544.633,624.914 545.966,618.914 549.5,613.5C 550.167,613.167 550.833,612.833 551.5,612.5 Z"/></g>
<g><path style="opacity:1" fill="#f6fbf8" d="M 233.5,635.5 C 243.54,635.97 253.54,636.803 263.5,638C 267.637,639.637 270.637,642.47 272.5,646.5C 272.291,647.086 271.957,647.586 271.5,648C 265,648.833 258.5,649.667 252,650.5C 241.437,650.76 235.27,645.76 233.5,635.5 Z"/></g>
<g><path style="opacity:1" fill="#135388" d="M 545.5,633.5 C 547.054,638.324 548.387,643.324 549.5,648.5C 548.542,648.047 547.708,647.381 547,646.5C 545.887,647.305 544.721,647.972 543.5,648.5C 542.601,642.563 540.934,636.896 538.5,631.5C 532.965,634.899 530.299,639.899 530.5,646.5C 532.157,655.089 533.157,663.756 533.5,672.5C 533.5,674.167 533.5,675.833 533.5,677.5C 531.876,677.36 530.71,678.027 530,679.5C 529.667,678.833 529.333,678.167 529,677.5C 527.669,680.832 525.836,683.832 523.5,686.5C 521.257,687.474 518.924,687.808 516.5,687.5C 520.83,685.17 524.163,681.837 526.5,677.5C 528.711,670.289 529.044,662.956 527.5,655.5C 528.376,655.631 529.043,655.298 529.5,654.5C 528.403,646.873 527.903,639.206 528,631.5C 528.941,633.061 530.108,634.395 531.5,635.5C 534.01,633.813 535.51,631.48 536,628.5C 537.734,629.249 539.567,629.749 541.5,630C 543.007,634.321 544.007,638.821 544.5,643.5C 545.487,640.232 545.82,636.898 545.5,633.5 Z"/></g>
<g><path style="opacity:1" fill="#f2f9fa" d="M 543.5,648.5 C 544.976,656.899 542.976,664.233 537.5,670.5C 536.378,671.63 535.044,672.297 533.5,672.5C 533.157,663.756 532.157,655.089 530.5,646.5C 530.299,639.899 532.965,634.899 538.5,631.5C 540.934,636.896 542.601,642.563 543.5,648.5 Z"/></g>
<g><path style="opacity:1" fill="#f9fbfa" d="M 526.5,655.5 C 526.833,655.5 527.167,655.5 527.5,655.5C 529.044,662.956 528.711,670.289 526.5,677.5C 523.832,678.099 521.998,679.766 521,682.5C 520.333,681.167 519.667,681.167 519,682.5C 518.833,681.333 518.667,680.167 518.5,679C 518.294,670.482 518.794,661.982 520,653.5C 520.689,652.643 521.522,651.977 522.5,651.5C 524.216,652.549 525.549,653.882 526.5,655.5 Z"/></g>
<g><path style="opacity:1" fill="#165182" d="M 386.5,669.5 C 385.352,670.895 384.352,670.728 383.5,669C 379.781,668.612 376.114,667.945 372.5,667C 371.781,664.444 370.114,663.277 367.5,663.5C 367.5,664.833 367.5,666.167 367.5,667.5C 362.851,668.295 358.184,668.461 353.5,668C 356.983,666.413 360.65,665.246 364.5,664.5C 362.42,657.72 358.087,655.387 351.5,657.5C 351.5,656.167 351.5,654.833 351.5,653.5C 345.547,653.692 341.213,651.192 338.5,646C 332.613,643.426 327.28,640.092 322.5,636C 320.5,635.333 318.5,635.333 316.5,636C 314.62,639.709 311.954,642.543 308.5,644.5C 311.05,639.61 314.384,635.277 318.5,631.5C 326.833,636.667 335.167,641.833 343.5,647C 358.179,654.004 372.512,661.504 386.5,669.5 Z"/></g>
<g><path style="opacity:1" fill="#1a5281" d="M 460.5,644.5 C 460.092,645.643 459.425,646.643 458.5,647.5C 453.692,649.737 449.026,652.237 444.5,655C 445.624,655.249 446.624,655.749 447.5,656.5C 440.468,657.866 433.802,660.032 427.5,663C 426.953,663.925 426.287,664.758 425.5,665.5C 421.972,666.106 418.639,667.272 415.5,669C 407.286,678.109 397.953,679.442 387.5,673C 386.663,671.989 386.33,670.822 386.5,669.5C 390.62,672.063 394.953,674.396 399.5,676.5C 419.715,665.441 440.049,654.775 460.5,644.5 Z"/></g>
<g><path style="opacity:1" fill="#235682" d="M 281.5,654.5 C 270.168,653.415 258.835,653.748 247.5,655.5C 249.55,660.217 252.883,663.55 257.5,665.5C 250.104,665.438 246.438,661.771 246.5,654.5C 245.448,654.649 244.448,654.483 243.5,654C 253.968,652.878 264.468,652.045 275,651.5C 277.909,651.285 280.076,652.285 281.5,654.5 Z"/></g>
<g><path style="opacity:1" fill="#f2fafb" d="M 281.5,654.5 C 284.331,655.998 285.998,658.331 286.5,661.5C 278.223,663.368 269.889,665.035 261.5,666.5C 260.167,666.167 258.833,665.833 257.5,665.5C 252.883,663.55 249.55,660.217 247.5,655.5C 258.835,653.748 270.168,653.415 281.5,654.5 Z"/></g>
<g><path style="opacity:1" fill="#fbfcf8" d="M 499.5,673.5 C 500.038,671.883 500.371,670.216 500.5,668.5C 501.833,667.833 502.833,666.833 503.5,665.5C 505.117,664.962 506.784,664.629 508.5,664.5C 508.666,672.174 508.5,679.841 508,687.5C 507.333,688.833 506.667,690.167 506,691.5C 505.667,691.167 505.333,690.833 505,690.5C 502.756,692.321 501.59,694.654 501.5,697.5C 500.5,697.5 499.5,697.5 498.5,697.5C 499.323,689.529 499.656,681.529 499.5,673.5 Z"/></g>
<g><path style="opacity:1" fill="#185485" d="M 286.5,661.5 C 286.539,662.583 286.873,663.583 287.5,664.5C 292.123,665.076 296.623,666.076 301,667.5C 301.772,667.355 302.439,667.022 303,666.5C 303.796,669.039 303.629,671.372 302.5,673.5C 301.929,669.532 299.596,667.365 295.5,667C 290.833,666.333 286.167,666.333 281.5,667C 275.654,668.951 269.654,669.785 263.5,669.5C 264.572,675.073 267.905,678.573 273.5,680C 276.5,680.667 279.5,680.667 282.5,680C 288.303,677.454 294.303,675.621 300.5,674.5C 297.96,676.666 298.627,677.666 302.5,677.5C 296.052,681.205 289.052,683.538 281.5,684.5C 281.469,688.597 283.469,691.097 287.5,692C 291.5,692.667 295.5,692.667 299.5,692C 306.319,689.09 312.985,685.923 319.5,682.5C 318.476,681.148 317.476,679.815 316.5,678.5C 317.552,678.351 318.552,678.517 319.5,679C 320.594,680.78 321.594,682.614 322.5,684.5C 324.658,681.67 327.324,681.003 330.5,682.5C 331.363,683.726 331.363,685.06 330.5,686.5C 326.753,686.392 323.086,686.892 319.5,688C 312.848,691.826 305.848,694.826 298.5,697C 299.665,698.992 300.998,700.825 302.5,702.5C 294.245,703.634 285.912,703.801 277.5,703C 278.994,701.054 280.994,700.221 283.5,700.5C 287.757,700.885 291.924,701.551 296,702.5C 296.833,701.667 297.667,700.833 298.5,700C 297.027,699.29 296.36,698.124 296.5,696.5C 293.455,696.508 290.455,696.841 287.5,697.5C 287.649,696.448 287.483,695.448 287,694.5C 282.862,695.16 280.029,693.327 278.5,689C 279.378,687.2 280.045,685.367 280.5,683.5C 281.552,683.649 282.552,683.483 283.5,683C 279.5,682.667 275.5,682.333 271.5,682C 269.116,680.098 266.449,678.931 263.5,678.5C 263.007,676.194 262.674,673.861 262.5,671.5C 261.5,671.5 260.5,671.5 259.5,671.5C 259.831,669.678 260.498,668.011 261.5,666.5C 269.889,665.035 278.223,663.368 286.5,661.5 Z"/></g>
<g><path style="opacity:1" fill="#eff8f8" d="M 302.5,673.5 C 302.158,674.338 301.492,674.672 300.5,674.5C 294.303,675.621 288.303,677.454 282.5,680C 279.5,680.667 276.5,680.667 273.5,680C 267.905,678.573 264.572,675.073 263.5,669.5C 269.654,669.785 275.654,668.951 281.5,667C 286.167,666.333 290.833,666.333 295.5,667C 299.596,667.365 301.929,669.532 302.5,673.5 Z"/></g>
<g><path style="opacity:1" fill="#ddf1f8" d="M 526.5,655.5 C 525.549,653.882 524.216,652.549 522.5,651.5C 521.522,651.977 520.689,652.643 520,653.5C 518.794,661.982 518.294,670.482 518.5,679C 518.667,680.167 518.833,681.333 519,682.5C 519.667,681.167 520.333,681.167 521,682.5C 521.998,679.766 523.832,678.099 526.5,677.5C 524.163,681.837 520.83,685.17 516.5,687.5C 516.167,687.5 515.833,687.5 515.5,687.5C 516.202,676.826 516.535,666.159 516.5,655.5C 518.834,652.171 521.834,649.504 525.5,647.5C 526.48,650.086 526.813,652.753 526.5,655.5 Z"/></g>
<g><path style="opacity:1" fill="#ddf1f8" d="M 510.5,668.5 C 510.666,674.842 510.5,681.175 510,687.5C 508.476,691.898 505.976,695.565 502.5,698.5C 500.591,699.348 498.591,699.682 496.5,699.5C 497.159,696.545 497.492,693.545 497.5,690.5C 497.334,686.154 497.501,681.821 498,677.5C 498.21,675.942 498.71,674.609 499.5,673.5C 499.656,681.529 499.323,689.529 498.5,697.5C 499.5,697.5 500.5,697.5 501.5,697.5C 501.59,694.654 502.756,692.321 505,690.5C 505.333,690.833 505.667,691.167 506,691.5C 506.667,690.167 507.333,688.833 508,687.5C 508.5,679.841 508.666,672.174 508.5,664.5C 506.784,664.629 505.117,664.962 503.5,665.5C 503.973,664.094 504.973,663.427 506.5,663.5C 507.15,663.196 507.817,662.863 508.5,662.5C 509.169,664.631 509.835,666.631 510.5,668.5 Z"/></g>
<g><path style="opacity:1" fill="#f2f9fa" d="M 302.5,677.5 C 307.214,677.353 311.881,677.686 316.5,678.5C 317.476,679.815 318.476,681.148 319.5,682.5C 312.985,685.923 306.319,689.09 299.5,692C 295.5,692.667 291.5,692.667 287.5,692C 283.469,691.097 281.469,688.597 281.5,684.5C 289.052,683.538 296.052,681.205 302.5,677.5 Z"/></g>
<g><path style="opacity:1" fill="#125184" d="M 398.5,705.5 C 394.248,712.425 389.581,719.092 384.5,725.5C 386.021,726.937 387.855,727.604 390,727.5C 392.921,727.136 395.754,726.469 398.5,725.5C 397.653,726.966 396.32,727.8 394.5,728C 390.848,728.499 387.182,728.665 383.5,728.5C 383.5,726.833 383.5,725.167 383.5,723.5C 381.5,723.833 379.5,724.167 377.5,724.5C 379.437,723.069 381.27,721.402 383,719.5C 386.444,713.724 390.277,708.224 394.5,703C 391.154,700.332 387.487,699.832 383.5,701.5C 386.192,699.728 389.359,698.728 393,698.5C 393.945,698.095 394.612,697.428 395,696.5C 396.299,696.966 397.799,696.966 399.5,696.5C 399.5,694.5 399.5,692.5 399.5,690.5C 401.167,690.5 402.833,690.5 404.5,690.5C 404.5,689.5 404.5,688.5 404.5,687.5C 410.089,689.963 416.089,691.63 422.5,692.5C 418.604,695.276 414.937,695.109 411.5,692C 409.5,691.333 407.5,691.333 405.5,692C 401.846,694.972 399.012,698.472 397,702.5C 396.415,703.998 396.915,704.998 398.5,705.5 Z"/></g>
<g><path style="opacity:1" fill="#f0f8f9" d="M 488.5,703.5 C 485.164,707.668 480.831,710.001 475.5,710.5C 477.722,701.95 479.389,693.284 480.5,684.5C 483.204,679.465 487.204,675.798 492.5,673.5C 493.167,673.833 493.833,674.167 494.5,674.5C 493.063,680.735 492.23,687.068 492,693.5C 491.105,696.951 489.938,700.284 488.5,703.5 Z"/></g>
<g><path style="opacity:1" fill="#f0f8f9" d="M 330.5,686.5 C 332.97,687.237 335.304,688.237 337.5,689.5C 337.539,690.583 337.873,691.583 338.5,692.5C 330.55,697.309 322.216,701.309 313.5,704.5C 309.665,704.583 305.998,703.917 302.5,702.5C 300.998,700.825 299.665,698.992 298.5,697C 305.848,694.826 312.848,691.826 319.5,688C 323.086,686.892 326.753,686.392 330.5,686.5 Z"/></g>
<g><path style="opacity:1" fill="#165080" d="M 480.5,684.5 C 479.389,693.284 477.722,701.95 475.5,710.5C 480.831,710.001 485.164,707.668 488.5,703.5C 488.876,706.619 487.709,708.953 485,710.5C 481.598,711.726 478.098,712.393 474.5,712.5C 475.456,704.373 476.789,696.373 478.5,688.5C 477.675,687.614 476.675,687.281 475.5,687.5C 473.918,694.735 472.918,702.068 472.5,709.5C 471.041,709.433 469.708,709.766 468.5,710.5C 471.604,702.456 473.604,694.123 474.5,685.5C 470.182,685.827 466.516,687.494 463.5,690.5C 463.215,688.712 463.548,687.045 464.5,685.5C 465.086,685.709 465.586,686.043 466,686.5C 468.087,682.031 471.254,681.198 475.5,684C 477.443,687.332 478.61,687.166 479,683.5C 479.383,684.056 479.883,684.389 480.5,684.5 Z"/></g>
<g><path style="opacity:1" fill="#f0f9f9" d="M 455.5,693.5 C 453.257,701.479 450.257,709.145 446.5,716.5C 442.255,722.909 436.255,725.409 428.5,724C 433.884,715.954 438.384,707.454 442,698.5C 445.83,695.001 450.33,693.334 455.5,693.5 Z"/></g>
<g><path style="opacity:1" fill="#f2f9f9" d="M 468.5,710.5 C 464.179,716.827 458.179,719.66 450.5,719C 454.345,713.816 456.845,707.983 458,701.5C 459.319,697.528 461.153,693.861 463.5,690.5C 466.516,687.494 470.182,685.827 474.5,685.5C 473.604,694.123 471.604,702.456 468.5,710.5 Z"/></g>
<g><path style="opacity:1" fill="#195080" d="M 516.5,655.5 C 516.535,666.159 516.202,676.826 515.5,687.5C 514.761,687.631 514.094,687.464 513.5,687C 514.988,682.379 514.655,677.879 512.5,673.5C 511.582,683.522 510.582,693.522 509.5,703.5C 508.5,703.5 507.5,703.5 506.5,703.5C 506.5,702.167 506.5,700.833 506.5,699.5C 503.45,698.923 501.45,700.09 500.5,703C 499.833,703.667 499.167,703.667 498.5,703C 495.805,699.62 494.971,695.787 496,691.5C 496.383,690.944 496.883,690.611 497.5,690.5C 497.492,693.545 497.159,696.545 496.5,699.5C 498.591,699.682 500.591,699.348 502.5,698.5C 505.976,695.565 508.476,691.898 510,687.5C 510.5,681.175 510.666,674.842 510.5,668.5C 510.5,666.167 510.5,663.833 510.5,661.5C 508.517,661.157 507.183,661.824 506.5,663.5C 504.973,663.427 503.973,664.094 503.5,665.5C 502.833,666.833 501.833,667.833 500.5,668.5C 501.5,665.833 502.5,663.167 503.5,660.5C 506.049,660.613 508.382,659.946 510.5,658.5C 512.129,675.543 513.295,675.209 514,657.5C 514.417,656.244 515.25,655.577 516.5,655.5 Z"/></g>
<g><path style="opacity:1" fill="#6c97b7" d="M 510.5,668.5 C 509.835,666.631 509.169,664.631 508.5,662.5C 507.817,662.863 507.15,663.196 506.5,663.5C 507.183,661.824 508.517,661.157 510.5,661.5C 510.5,663.833 510.5,666.167 510.5,668.5 Z"/></g>
<g><path style="opacity:1" fill="#f2f9fa" d="M 336.5,713.5 C 330.955,715.208 325.622,714.708 320.5,712C 319.934,711.005 319.267,710.172 318.5,709.5C 318.5,708.5 318.5,707.5 318.5,706.5C 321.647,706.263 324.647,705.43 327.5,704C 332.334,700.748 337.334,697.748 342.5,695C 345.833,694.333 349.167,694.333 352.5,695C 354.116,695.615 355.449,696.615 356.5,698C 349.945,703.428 343.279,708.595 336.5,713.5 Z"/></g>
<g><path style="opacity:1" fill="#f2f9f8" d="M 372.5,699.5 C 372.842,700.338 373.508,700.672 374.5,700.5C 370.233,709.933 363.233,716.433 353.5,720C 348.548,721.31 344.215,720.31 340.5,717C 347.744,712.427 354.41,707.093 360.5,701C 364.363,699.646 368.363,699.146 372.5,699.5 Z"/></g>
<g><path style="opacity:1" fill="#f1f9f9" d="M 434.5,699.5 C 434.5,700.167 434.5,700.833 434.5,701.5C 431.213,706.808 428.38,712.475 426,718.5C 421.236,725.809 414.736,728.476 406.5,726.5C 411.502,718.495 416.502,710.495 421.5,702.5C 425.452,699.962 429.785,698.962 434.5,699.5 Z"/></g>
<g><path style="opacity:1" fill="#f2f9f9" d="M 399.5,725.5 C 399.167,725.5 398.833,725.5 398.5,725.5C 395.754,726.469 392.921,727.136 390,727.5C 387.855,727.604 386.021,726.937 384.5,725.5C 389.581,719.092 394.248,712.425 398.5,705.5C 399.872,704.488 401.205,703.488 402.5,702.5C 406.488,701.302 410.488,701.302 414.5,702.5C 410.812,707.876 407.646,713.542 405,719.5C 402.96,721.37 401.127,723.37 399.5,725.5 Z"/></g>
<g><path style="opacity:1" fill="#f4f9f8" d="M 377.5,724.5 C 373.554,725.527 369.554,725.694 365.5,725C 364.09,724.632 363.09,723.799 362.5,722.5C 364.028,721.139 365.695,719.972 367.5,719C 371.99,712.345 377.324,706.512 383.5,701.5C 387.487,699.832 391.154,700.332 394.5,703C 390.277,708.224 386.444,713.724 383,719.5C 381.27,721.402 379.437,723.069 377.5,724.5 Z"/></g>
<g><path style="opacity:1" fill="#165284" d="M 455.5,693.5 C 450.33,693.334 445.83,695.001 442,698.5C 438.384,707.454 433.884,715.954 428.5,724C 436.255,725.409 442.255,722.909 446.5,716.5C 447.27,720.751 445.603,723.251 441.5,724C 442.743,726.455 444.743,727.622 447.5,727.5C 447.5,729.5 447.5,731.5 447.5,733.5C 444.383,733.358 441.883,732.024 440,729.5C 438.701,729.966 437.201,729.966 435.5,729.5C 436.113,732.969 434.779,734.969 431.5,735.5C 431.042,725.005 430.042,725.005 428.5,735.5C 427.167,735.5 425.833,735.5 424.5,735.5C 424.207,730.417 425.041,725.75 427,721.5C 425.615,722.551 424.615,723.884 424,725.5C 421.601,725.028 419.601,726.028 418,728.5C 417.814,730.9 417.314,733.234 416.5,735.5C 415.534,733.604 415.201,731.604 415.5,729.5C 412.813,729.664 410.146,729.497 407.5,729C 406.748,728.329 406.414,727.496 406.5,726.5C 414.736,728.476 421.236,725.809 426,718.5C 428.38,712.475 431.213,706.808 434.5,701.5C 436.144,701.714 437.644,701.38 439,700.5C 439.311,698.444 439.811,696.444 440.5,694.5C 444.464,693.727 448.298,692.727 452,691.5C 453.681,691.608 454.848,692.275 455.5,693.5 Z"/></g>
<g><path style="opacity:1" fill="#185284" d="M 434.5,699.5 C 429.785,698.962 425.452,699.962 421.5,702.5C 416.502,710.495 411.502,718.495 406.5,726.5C 405.883,726.611 405.383,726.944 405,727.5C 404.105,724.233 402.272,723.566 399.5,725.5C 401.127,723.37 402.96,721.37 405,719.5C 407.646,713.542 410.812,707.876 414.5,702.5C 410.488,701.302 406.488,701.302 402.5,702.5C 402.881,701.069 403.881,700.236 405.5,700C 408.868,699.457 412.201,699.624 415.5,700.5C 415.215,702.288 415.548,703.955 416.5,705.5C 417.711,703.578 419.044,701.745 420.5,700C 424.114,699.064 427.78,698.564 431.5,698.5C 431.338,696.473 431.505,694.473 432,692.5C 433.289,694.645 434.122,696.978 434.5,699.5 Z"/></g>
<g><path style="opacity:1" fill="#185283" d="M 372.5,699.5 C 368.363,699.146 364.363,699.646 360.5,701C 354.41,707.093 347.744,712.427 340.5,717C 344.215,720.31 348.548,721.31 353.5,720C 363.233,716.433 370.233,709.933 374.5,700.5C 376.156,701.146 377.823,701.813 379.5,702.5C 380.849,702.154 382.183,701.821 383.5,701.5C 377.324,706.512 371.99,712.345 367.5,719C 365.695,719.972 364.028,721.139 362.5,722.5C 363.09,723.799 364.09,724.632 365.5,725C 369.554,725.694 373.554,725.527 377.5,724.5C 377.047,725.458 376.381,726.292 375.5,727C 372.854,727.497 370.187,727.664 367.5,727.5C 367.5,728.5 367.5,729.5 367.5,730.5C 366.07,730.579 364.736,730.246 363.5,729.5C 362.359,726.938 361.526,724.272 361,721.5C 358.223,718.709 356.723,719.375 356.5,723.5C 351.851,724.295 347.184,724.461 342.5,724C 341.534,721.901 340.2,720.068 338.5,718.5C 339.246,717.264 339.579,715.93 339.5,714.5C 338.209,714.737 337.209,714.404 336.5,713.5C 343.279,708.595 349.945,703.428 356.5,698C 355.449,696.615 354.116,695.615 352.5,695C 349.167,694.333 345.833,694.333 342.5,695C 337.334,697.748 332.334,700.748 327.5,704C 324.647,705.43 321.647,706.263 318.5,706.5C 318.5,707.5 318.5,708.5 318.5,709.5C 317.596,708.791 317.263,707.791 317.5,706.5C 315.62,706.771 314.287,706.104 313.5,704.5C 322.216,701.309 330.55,697.309 338.5,692.5C 337.873,691.583 337.539,690.583 337.5,689.5C 340.588,689.197 342.254,690.53 342.5,693.5C 345.5,693.5 348.5,693.5 351.5,693.5C 351.5,692.5 351.5,691.5 351.5,690.5C 349.158,690.496 347.158,689.663 345.5,688C 347.579,687.192 349.579,687.359 351.5,688.5C 354.688,691.046 357.022,694.213 358.5,698C 362.558,698.767 366.558,698.6 370.5,697.5C 371.522,697.855 372.189,698.522 372.5,699.5 Z"/></g>
</svg>
